<?xml version="1.0" encoding="utf-8"?>
<!-- Generator: Adobe Illustrator 16.0.0, SVG Export Plug-In . SVG Version: 6.00 Build 0)  -->
<!DOCTYPE svg PUBLIC "-//W3C//DTD SVG 1.1//EN" "http://www.w3.org/Graphics/SVG/1.1/DTD/svg11.dtd" [
	<!ENTITY ns_extend "http://ns.adobe.com/Extensibility/1.0/">
	<!ENTITY ns_ai "http://ns.adobe.com/AdobeIllustrator/10.0/">
	<!ENTITY ns_graphs "http://ns.adobe.com/Graphs/1.0/">
	<!ENTITY ns_vars "http://ns.adobe.com/Variables/1.0/">
	<!ENTITY ns_imrep "http://ns.adobe.com/ImageReplacement/1.0/">
	<!ENTITY ns_sfw "http://ns.adobe.com/SaveForWeb/1.0/">
	<!ENTITY ns_custom "http://ns.adobe.com/GenericCustomNamespace/1.0/">
	<!ENTITY ns_adobe_xpath "http://ns.adobe.com/XPath/1.0/">
]>
<svg version="1.1" id="Capa_1" xmlns:x="&ns_extend;" xmlns:i="&ns_ai;" xmlns:graph="&ns_graphs;"
	 xmlns="http://www.w3.org/2000/svg" xmlns:xlink="http://www.w3.org/1999/xlink" x="0px" y="0px" width="263px" height="433px"
	 viewBox="0 0 263 433" enable-background="new 0 0 263 433" xml:space="preserve">
<metadata><?xpacket begin="﻿" id="W5M0MpCehiHzreSzNTczkc9d"?>
<x:xmpmeta xmlns:x="adobe:ns:meta/" x:xmptk="Adobe XMP Core 5.3-c011 66.145661, 2012/02/06-14:56:27        ">
   <rdf:RDF xmlns:rdf="http://www.w3.org/1999/02/22-rdf-syntax-ns#">
      <rdf:Description rdf:about=""
            xmlns:dc="http://purl.org/dc/elements/1.1/">
         <dc:format>image/svg+xml</dc:format>
         <dc:title>
            <rdf:Alt>
               <rdf:li xml:lang="x-default">Web</rdf:li>
            </rdf:Alt>
         </dc:title>
      </rdf:Description>
      <rdf:Description rdf:about=""
            xmlns:xmp="http://ns.adobe.com/xap/1.0/"
            xmlns:xmpGImg="http://ns.adobe.com/xap/1.0/g/img/">
         <xmp:CreatorTool>Adobe Illustrator CS6 (Windows)</xmp:CreatorTool>
         <xmp:CreateDate>2022-09-27T19:47:45+01:00</xmp:CreateDate>
         <xmp:ModifyDate>2022-09-27T19:47:49+01:00</xmp:ModifyDate>
         <xmp:MetadataDate>2022-09-27T19:47:49+01:00</xmp:MetadataDate>
         <xmp:Thumbnails>
            <rdf:Alt>
               <rdf:li rdf:parseType="Resource">
                  <xmpGImg:width>160</xmpGImg:width>
                  <xmpGImg:height>256</xmpGImg:height>
                  <xmpGImg:format>JPEG</xmpGImg:format>
                  <xmpGImg:image>/9j/4AAQSkZJRgABAgEASABIAAD/7QAsUGhvdG9zaG9wIDMuMAA4QklNA+0AAAAAABAASAAAAAEA&#xA;AQBIAAAAAQAB/+4ADkFkb2JlAGTAAAAAAf/bAIQABgQEBAUEBgUFBgkGBQYJCwgGBggLDAoKCwoK&#xA;DBAMDAwMDAwQDA4PEA8ODBMTFBQTExwbGxscHx8fHx8fHx8fHwEHBwcNDA0YEBAYGhURFRofHx8f&#xA;Hx8fHx8fHx8fHx8fHx8fHx8fHx8fHx8fHx8fHx8fHx8fHx8fHx8fHx8fHx8f/8AAEQgBAACgAwER&#xA;AAIRAQMRAf/EAaIAAAAHAQEBAQEAAAAAAAAAAAQFAwIGAQAHCAkKCwEAAgIDAQEBAQEAAAAAAAAA&#xA;AQACAwQFBgcICQoLEAACAQMDAgQCBgcDBAIGAnMBAgMRBAAFIRIxQVEGE2EicYEUMpGhBxWxQiPB&#xA;UtHhMxZi8CRygvElQzRTkqKyY3PCNUQnk6OzNhdUZHTD0uIIJoMJChgZhJRFRqS0VtNVKBry4/PE&#xA;1OT0ZXWFlaW1xdXl9WZ2hpamtsbW5vY3R1dnd4eXp7fH1+f3OEhYaHiImKi4yNjo+Ck5SVlpeYmZ&#xA;qbnJ2en5KjpKWmp6ipqqusra6voRAAICAQIDBQUEBQYECAMDbQEAAhEDBCESMUEFURNhIgZxgZEy&#xA;obHwFMHR4SNCFVJicvEzJDRDghaSUyWiY7LCB3PSNeJEgxdUkwgJChgZJjZFGidkdFU38qOzwygp&#xA;0+PzhJSktMTU5PRldYWVpbXF1eX1RlZmdoaWprbG1ub2R1dnd4eXp7fH1+f3OEhYaHiImKi4yNjo&#xA;+DlJWWl5iZmpucnZ6fkqOkpaanqKmqq6ytrq+v/aAAwDAQACEQMRAD8A9U4q7FXYq7FXYq7FXYq7&#xA;FXYq7FXYq+Iv+cxfMF1e/mmmk+uxs9KsYFW25Hgss3KZn49OTK6ivgBiryHy75y81+W7gXGg6vd6&#xA;ZIDU/VpnjVvZ0B4sPZhir6J/Kn/nMS/W5g0v8wokmt3IQa9bIEkQn9q4gQcWXxaMCn8pxV9W2t1b&#xA;XdtFdWsqT206LJBPGwdHRxVWVhUEEGoIxVVxV2KuxV2KuxV2KuxV2KuxV2KuxV2KuxV2KpF5087e&#xA;XPJmgy675hufqunxMsfIKzu8j/ZREUEljiry7Tf+cwfyfvLwW87ajp8ZNPrVzagxdt/3Ekz0/wBj&#xA;ir50/wCcjNEvbnzve+eLO6i1jyv5hkQ6drFq6yxBo4UT6tKVr6ckapQK1CQPY0VeSYq7FX1j/wA4&#xA;X/mJqF0up+RL1mmgsoTqWluTX0o/UWOeLf8AZLyoyjxLYq+o8VdirsVdirsVdirsVdirsVdirsVd&#xA;irsVdirF/wAzPLflTzB5K1O08027XGj28L3k3pErMn1ZDJ6kRBFHUA08eh2OKvzt80yeTXvVPlWD&#xA;UILLfmupywzSE7U4mCOIAfOuKoKw1O8tUmtUupYLK9Ajvok+NXjBr8UTFVcqfiWvQ7gjriqN8weU&#xA;9U0W3sr6Xhc6TqaGTTdUtyWt5who6gkKyyRts8bgMvcdMVQeh6JqeuavZ6PpcDXOoX0qwW0C9Wdj&#xA;QfIDqT2GKvv/APJX8l9D/LXQvTipdeYL1E/S2pmvxEb+lED9mJCfm3VuwCr0fFXYq7FXYq7FXYq7&#xA;FXYq7FXYq7FXYq7FXYqlXmtmXyzqvGxm1MtazJ+j7bj6s3NCvppzKrU18cVfG35Eflo1l+YX6I/M&#xA;Py5LZfpjT7qDQZdVtawC9AUgrHOvpSSLHzKg137dDirX5P8A/OPNl5xt/PGm6xczWXmPy/KlpYxL&#xA;8CpORN8U6uhLRu0YApQ0r7YqgNO8vecPJHlzVPK/5laBeWnkjWZgo1EKsw0/U0BEF5CYyysDx4yK&#xA;D8adD2KqB8g2/wCYv5XeaLbzdp3lz/EOmvE8dtqMEMtzZTQTEAyW9zEp9KQhePxDktSrL1GKvojR&#xA;P+cl79r2xuvNnkzUPLHlbUmW2t9cuObxR3R6iUtHF+6avwvTsdjQ8VXumKuxV2KuxV2KuxV2KuxV&#xA;2KuxV2KuxV2KuxVIPM3nryz5ZvtIs9buxZNrc7W1jLJtEZVUNxd/2OVaAnauKppqWj6VqiQJqNpF&#xA;dpazx3VsJkD+nPCeUcqV6Mp6EYqsntZ/rcF1p4tY2ldf0hPJGXkkt1VuKIyMnxciKFiQBXY4q+c/&#xA;+cqfzDXW7m3/ACk8v2Umoa7dXFrLdPGRRHb4ooFUblyGV2JoFX6aKvdPyz8ov5Q8haJ5bkkEs2nW&#xA;ypcSL9kzOTJLxr+z6jtT2xVi2p+dfK35haxrX5ZWlxNbahHbagmp80kguLeW0lgjglhcEKwZ5vUU&#xA;gmoXwOKvL/8AnGD81vMyea7/APLLzXcyX91A9ybG9nnaeRJrUhZbYM9S0fFHdTXanSh2VfT+KuxV&#xA;2KuxV2KuxV2KuxV2KuxV2KuxVb6sXq+lzX1ePL06jlxrStOtK4q+M/8AnLq+1m+1+zfVINWsIrXl&#xA;Dp1lc2tv+jirUMk0F7DcSmSR+KllaMECg2puqzb/AJxt/OO0856LJ+WvnV/rV76LR2E8zsDe2oHx&#xA;28rVDGRF9/jTr0PJV6D5j/M7R/KHmG08ieVrfT11CwgD/oG8dtMhlilHKJLO8ZXgWRepRlo1dmBU&#xA;jFWMfkP5QsrXz/5g17zfPaN+Z+ptPfnRoZo7ptPspnWrcojJGrSesqj4q+nxp9psVe/Yq8F/Pb8l&#xA;fOWqa83nn8ub1rHzHJamz1S1hl+rSXMVOIaOWqjnwopDMNlWhBG6r5C03UvM/knzhBqCpLp/mDR7&#xA;kSNFcIyyLIp+JJUahowJDA9QcVfoT+W/5n+VfP2h2+o6PeRG7eIPe6WZFNzbP0ZZI68qBtg1KN2x&#xA;Vl2KuxV2KuxV2KuxV2KuxV2KpJ5182ad5R8qan5k1EM1ppkJmaNPtO1Qsca12q7sqivjiqQeV7nz&#xA;d5x/K2O+1NrbTtW8wWzzwQotwIre2ud4Iy0M9vOW9Egs6yIQx26UxV8M/mv5S1Tyh51uNOvbObT7&#xA;sUnXnMbhJOTGk1tcMqO8Tcfh5jmv2WJYE4qlkPnTz1dWL6EusX95YXlITpbzS3ETljRQsLl15V+y&#xA;VFa9MVb1TQfOPkXVtNuL+GXRtY4x6hYoXVbmIK59N3jBLxNyTZXAPtir6In/AC2tv+ci7HTfPdnr&#xA;kWjarb2Uema5p5tzMPrtu7MZARLHxSSOUMux2oOtaKpj5N/I383Pyr03zLf+VrzTdT1S7s4Ws24M&#xA;ZS8E3KSBY5Bx/eRsSp5bsoG3XFWB+Tv+cw/zE0/WYf8AFKQatpLOFvESBILlEOxaJo+Ccl60cb9K&#xA;jqFX1lonnryn5o0pLjy7rVpdPexH6qqTIJVcrUB4q+ojLX4lK1GKvhL8yPPX5gajbRaB570eBNdt&#xA;FUDVb2yMGrGHkXRGlPDlH4Hh9O5xVR/I38w4vIX5jadrl0CdMkDWmp8QSwt56BnAHX02CvTvSmKv&#xA;0Strm3ureK5tpVmt50WSGaMhkdHHJWVhsQQag4qqYq7FXYq7FXYq7FXYq7FXl/8Azk5byz/kb5nS&#xA;IcmCWkhH+THewOx+hVOKpv8AlH5i0vzh+VOiXVs44PYJY3scRAaKeGIQzJt9mhFV9iDir5L/ADT0&#xA;3zDo/lmXyL50Bk1nyrMLryrrL1b67pU7+lNAjmpbgxSRQTVArrtxGKvJdG1jVNF1S11XSrl7TUbK&#xA;QS21zHsyOvQ71HzB2OKvYNa1DR/zvtPriJHpn5r2UAD2iki21uGFekFa+ndIo2T9roK/sKqX/OLn&#xA;5hTeTvzKTRr9mh0zzAy6feRvVfTugxFs7A0oRITGa9Ax8MVfbGua9aaW9jays63erTNZ6cVikkQ3&#xA;HpPKokZFYIOMR3bFX5latY6jYareWWpRtDqNtNJFeRSCjrMjFXDe4YHFUPFLLFKksTtHLGwaORSV&#xA;ZWU1BBG4IOKva5vLfkjzl5M07XdSur0/mTq1jf3MdtbSiSG+k012T98JVd47iWNOQRDRqVABYDFX&#xA;iOKvqv8A5xH/ADmdmT8utcmqAGfy9cOd9qvJaEn6Wj+lf5Rir6pxV2KuxV2KuxV2KuxV2KpN5z8v&#xA;ReZPKWs6BIQF1SzntVduitLGVR/9ixDYq+FPya/OHX/yp8zz29zE8+izzejrekkjkrxkoZYqmiyx&#xA;9PBhsexCr6586+VvJP53flur6ddRXCSq02iasgPK3uQKUdSOQBI4yxkVp7gEKvgTW9G1LRNXvNI1&#xA;OBrbULCV4LmBuquhofmPAjqN8VQkUskUiSxOY5IyGR1JDKwNQQR0IxVl/mvzVp3mXTLHW5ybXzva&#xA;yLBqc8YKrqEYBaK95KAEuIyvCWp+OquN+eKvujyb5o13zr+VOi69oV1b22s6hDbGa4uY2lhSWKZY&#xA;7792pQt/dyhByG9Nxir5c8/flP51/Mv8zPPOt+UbOG6ttO1RrGaJpo4XaaCNY34eoUQ1ZCT8WKvP&#xA;Na/Jj81tF5HUPKupLGgq8sMDXEajxMkHqIPvxViqtqWl30cimayvrVxJE3xRSxyKaqy9GVgR1xVd&#xA;qmpTaldteTxxpcy7zvEvpiR+7sq/AGPfiAPpxVkP5YeW/O2tecdMPlC0kn1SyuYbiO4VT6NuY3DL&#xA;JPJ9lEBXevXoKnbFX6T4q7FXYq7FXYq7FXYq7FXYq+GP+csPy7byz+Yr63axcdK8yhrtCPsrdrQX&#xA;Kf7JiJP9l7YqxP8AJ785fMf5ba4Li0ZrrRLlx+lNJZqRyr05pX7Eqjow+RqMVelf85P6J5f8z6Po&#xA;v5u+VHE+m6qFsdWKrxdZkB9FpV6q4CtE9f5Up1xV86Yqnb6zojeTY9GGjRrrcd+10dfEr+o1s0XD&#xA;6q0X2aBwHDV+jcnFX0//AM4pefrbS/yf81m+flF5Xll1Ar3EEsHqKg/1pIJKe5xVnH/OKunXUX5W&#xA;fpm9Ja98x6jeapPI32mLuIan5+hyHzxV7FiqlcWlrcpwuYY50HRZFDjfbowOKpf/AIT8q/8AVmsf&#xA;+kaH/mnFUwtbO0tIhDaQR28I6RxKqKNqdFAHbFVXFXYq7FXYq7FXYq7FXYq7FWE/nF+W1n+YXka9&#xA;0KTil+v+kaVct/uq7jB4En+VwSjf5JPfFX57ReW9eHmM6ALQrrcU7WxsZeCt68ZIMVJCFLchQL+0&#xA;dhXFX0J5V82SWflTUPInmz8otVtdM1Wh1OfSba6VmnCqFuEtpl4I4MasOEgXbZaYq8283f8AOP3n&#xA;7So31XRtJ1DVPLsgaS3uHtJbe9jRTRlubKQCeNk/mClGHxKaYqwrypfeWLHU5pPMmmS6pYPa3EUd&#xA;vBMbd0uHiIhl5Ub7D02Ip3o1OJVRflrzdqmm+WvMHliwRmPmk2UEvE0PG3maQKB3LswX5E4q/RXy&#xA;Z5ei8ueUtG0GKnHTLOC1LD9poowrt/smqcVTnFUh85ee/KvkzTF1TzLe/UbB5VgE4immAkcMVBEC&#xA;SMteB3IpiqY6Lrek65pVtq2kXUd7pt4nqW11CeSOtaGnuCCCDuDscVRuKuxV2KuxV2KuxV2KuxV2&#xA;KuxV2Kvm7/nJ/wDId/Md3H5q8rJG3mR42F/pCsqzX0cCj99ApILyxJQMo+0tKbijKvmK78/fmTDb&#xA;/oe78xaxFBan0jYS3dyqx8duBjLinGlKEbYq35N8xeXNO1d7zzRpl3rcTIEjW3v3snQg1qXVJGcd&#xA;qclxVkmo+cPyOljKWv5eX0bNWsw1yVXB9g9vOp+kYqoeQ9V/KjT/AD3omt3o1TT9O067jupbOYQ6&#xA;iGMJ5x1mjFm1A6io9Bq4q+2ND/PD8pNbRWsfNengsKrHcyi0kP8AsLn0m/DFWWWGtaPqJYaff294&#xA;UAZhbypLQHoTwJ64q+R/+csPL/mnXvzHkuNK07UJ9G02xtLfUb5o5BYRT8pZQTMQIlVI7hSzE/CS&#xA;a0xV7v8A845+X7PQPytsNNt9Ys9akWWaW6udOmW4t45ZW5mFXU9UBHKvfFXpuKuxV2KuxV2KuxV2&#xA;KuxV2KuxV2Kvi/8A5yz/ADHvZ/zRsNO0W+ltn8qQ/Bc28hjeO9uKSSlHQggrGI1PgajFWEXP5763&#xA;rdotp510PSfNaqoQXl5bmC/VQKAJd2jQOPuPvirDtcn8m3VZ9GtL7S5D1sZ5Y72Kp/kmC2zovgGR&#xA;z/lYqkeKuxVm35P/AJa3X5ied7Xy9HMba1CNc6jdAVaO2iIDlQf2mZlRfc4q+3fyg/Lb/A+nXdqd&#xA;M0vThMUWP9HtPc3Eipyq93eXAiaVm5bKsSKm9K12VeR/85Gfn15q0rzvp/lDyFdSR6lYODqRhiju&#xA;PXuLhVEVqI2WTnxVviFPtMB1XFXrv5J+W/MmieTifM+n6fp+v6hcSXd6mmwwwA8wOHrCBUjMo3B4&#xA;7fTXFXoGKuxV2KuxV2KuxV2KuxVI9V88+T9H1mDRdW1i10/U7qL17e3upFh9SPkUqjPxQnkp+Gtf&#xA;bFUB5i/Nb8uPLtm13q3mOwhQAssaTpNM4H8kMReR/wDYrir5v8+/85n67NqXo+SNPitdNi5KbrUE&#xA;9SaYkEKwjVgsagmoFWJ79xir5svLy6vbye9u5Wnu7mR5ridzyd5JGLO7E9SzGpxVRxV2Ksg8t+Q/&#xA;NHmPS9a1TSLJriy0C2+t6lKNgsdei+LcQz0/lVjir2L8k/yWsfzW/L26e+kj0q50W9Ntpup21rHy&#xA;lVoxLLFd8DE1wFLoVYtzWpHKlAFXo/lL8g/OnkL87I9e8nC2j8lzBbe7iuLhmlFrJGjXCUKlyRMn&#xA;KLfsvI0rirDPN3mT853/ADz1P8v/ACh5xnnW/vWkiBPKOzSRfXaJnZJGRbePZuHhTrtir2D8p/8A&#xA;nHnTvJuu3HmrXNUk8yebLnmTqFwlFieU1kdA7SOZG6GQtWlaAVOKvXsVdirsVdirsVdirsVdiqhf&#xA;6hYafaSXl/cxWdnCOU1zO6xRoPFnchR9OKvmn8/PzR/5xz816eLDUJrrV9WswwsdR0eIc4WbqvrT&#xA;mOKSM03A5Dw3xV8nXYtBcyC0aR7bkfSaVVR+PbkFZxX5HFVXS9J1TVr2Ow0uzmvr2Y0itraNpZGP&#xA;siAk4q9A0b8nIlvba181a/baVf3ciw22gWA/SmrSSsQFjNvbt6ULNX/d0q07jFX1J5W/5xQ/J/SY&#xA;YnvdPudYuqBi+ozt8LdSPTtzFEfkQ3zOKs2h/J78qIYfSTydoxXpV7C3dv8Ag3Rm/HFU80Pyx5c0&#xA;HTm03RdMttOsHZne1tokjjZnFGZlUDkSBTftiqE8l+RvLfkvSJNJ8vW31SwkuJbpoixf95MRWhbe&#xA;gACj2GKoX8zfPNn5H8kap5kueLNaREWkLH+9uZPhhj8d3I5U6LU9sVeRf84meQrxNN1H8yNdrNrf&#xA;maST6tLIPjFuZC0stfGeYV+Sgjrir6FxV2KuxV2KuxV2KuxV2KvMvzn/AD18uflrp4icDUPMd1GX&#xA;sdKRqUHQSzsPsR16d26DuQq+I/P35oedvPmoG88xai88YYtb2MdY7WH2ihB4jbbkase5OKsUxV2K&#xA;p/5VtfO2s3A8u+WRe3Ml6fj0+zZwsg2q0oUheI7s+wxV9mfkF/zjzYfl/bjWtb9O+83TpT1F+KKz&#xA;Rh8UcJPVz0eT6BtXkq9pxV2KuxV2KvmT87bq6/NP84tD/KjS5mGkaS/1vzBPHuFfjykPcVihbgv+&#xA;W9Dir6VsbK0sLK3sbOJYLS1jSC3hTZUjjUKir7KopiqtirsVdirsVdirsVdirFPzQ8/WHkPyVqHm&#xA;O7Ake3XhZW5NPWuZNoo9t6Ft28FBOKvzo8x+YtY8x65ea3rFw11qV9IZbiZu5OwAHZVACqB0G2Kq&#xA;+g+TfNvmBuOh6Ne6nvQta28sqg/5TIpUfScVZPD+S3mSFj/iDU9G8shftJqmpW6zCnX/AEaBp5wR&#xA;4FAcVeqfk/8A846/lf5pupXl8yXnmKKzFbp7C0nsrASVA9H61cLylbfl+7pt4d1X1L5U8keUvKNh&#xA;9Q8t6Vb6ZbmnqeivxyFehllaskhHi7E4qneKuxV2KuxVi/5m+ebPyP5I1TzJc8Wa0iItIWP97cyf&#xA;DDH47uRyp0Wp7Yq85/5xb8hXmmeWbvztrnKXzH5wkN5LLKP3i2zOzp9MzMZT4gr4Yq9uxV2KuxV2&#xA;KuxV2KuxV2Kvlf8A5y+1WfWfNPl7yWl2lnp9nbSavqtzLy9KJXZolkk41JMaRuEUDkxcKKlhiry3&#xA;yP6uq65D5a/Kzy1Bdak1PW8za1DHd3CopAa49KQS2tnEK9Ajv0HNmoMVe4fm3H5i/Kj8n5rv/EN/&#xA;rHmvXJodJn1eeaQJbpKkkrrZwBvTgXhCVBUcqmtelFXhv/OP/wCStz+ZHmNp78PF5X0xlbU7haqZ&#xA;nO620bfzN1Yj7K+5XFX3ho+jaVoumW+l6Vax2Wn2iCO3toVCoijwA+8nqT1xVGYq7FXYqluq+ZNC&#xA;0m4s7bUL2OC61CT0bG1J5TTv3EUS1d6d6DbviqZYq+dfzS5/mt+dOkflpbMzeWvLf+5LzPJGfhaS&#xA;g/dEjuFdYx3Bdv5cVfREcccUaxxqEjQBURQAqqBQAAdAMVXYq7FXYq7FXYq7FXYq7FXwt/zlL+kr&#xA;z889R0+1DzS3EFhawW6D4n5xRusYA61katPHFX1V+S35T6X+XHlGLT4lWTWbtUm1q+AqZJ6fYU/7&#xA;7i5FUHzPUnFUy/NL8utM/MLyddeXL+VrYyMs1peIodoLiOvCTiSOQ3KsKiqk7g74qq/ln5B0zyH5&#xA;MsPLdgRJ9WXnd3XHiZ7l95ZWG/2jsoJNFAHbFWUYq7FXYq87/On81k8g6BAthB+kPNOsSfVdA0wA&#xA;sZJiQDIyr8RROQ2G7MQu1ahVr8qPyzvNBik8yebLk6x5/wBWUNqmpzEP6CtuLS2p8McUdaHhQE/5&#xA;PEBVPfzN882fkfyRqnmS54s1pERaQsf725k+GGPx3cjlTotT2xVh/wDzjl5CvPL3k6XX9b5P5p82&#xA;S/pPVpZRSQCQl4Y26EGjl2B6MxHbFXrGKuxV2KuxV2KuxV2KuxV2KvHfOv5Ny6n+e/lDz5bRCWwh&#xA;Zl1pNqxy2kMklpPQkE8pAiGnQhcVexYq7FXYq7FXYqo3t7a2NnPe3kqwWlrG81xO5oqRxqWd2Pgq&#xA;ipxV4L+Tmn3X5l/mJqn5v61E36LtHfT/ACbaS7iOKMlWnCnuKn/Zs/8AKMVfQGKvCPOaj80/zq0/&#xA;yVGDN5S8kldS8yEbxTXrD9xbHqDT7J/56Dtir3fFXYq7FXYq7FXYq7FXYq7FXYq7FXYq7FXYq7FX&#xA;Yq8Y/wCch9Z1PWP0N+VXl6TjrXm+YfX5F3+r6ZCeUsj0oQrFT81Vh3xV6t5c8v6Z5d0Gw0PS4vR0&#xA;/ToUt7dOp4oKVY92Y7se5xVJfzS89W3kfyNqfmKUB57eP07CA/7tupfghjoNyOZq1P2QTiqS/kV5&#xA;AufKPklH1bk/mfXZG1TzBPJvIbm4+L02P/FYND/lcj3xV6LirsVdirsVdirsVdirsVdirsVdirsV&#xA;dirsVdirEvzG/Mzy55E0j63qTmfULj93pejwfFdXcxPFY4kFTTkRVqUHzoCqkH5UeQdZttR1Hz/5&#xA;yCv518xKvK3XePTrLYx2UVe4oPUPcj5syr0zFXjesxf8rH/Ou10enq+U/wAvSl7qfeOfWZh/o8R7&#xA;N6CfEfA8lbrir2TFXYq7FXYq7FXYq7FXYq7FXYq7FXYq7FXYq7FWD/nL+YNv5H8harqsd3DBrBga&#xA;PR4ZSpeS5f4EKRmvPgW5EUpQb7Yq8o/5xq/K7zDd6pd/mZ+YEVxPr10eOjjUATMqMKtdcH3SoPCI&#xA;UFFrQUK4q+j8VYv+ZfnOPyd5Nv8AWxH696iiDS7QAlp72c+nbxBRueUjCtP2anFUL+U3keTyd5Nt&#xA;7C8f19cvXfUNfvKhmmv7k85mLD7XE/AD4DFWZYq7FXYq898jeaxq/wCaX5h6Vbz+tY6O2lIADVVu&#xA;ZIJVuAvhT0UVvdTir0LFXYq7FXYq7FXYq7FXYqxy4/MLypb+ebfyRLeKvmC6tWvYoDQLwVgAnIn+&#xA;8YcmVBvxUnwqqgPNX5wflx5T1M6X5i1ldOvgquIpYbghlYVBV1jZGHyOKsb1P/nKP8k7GAyLrxvZ&#xA;KErBa21y7tT3aNEH+yYYq8d/LD8oNT85/mpB+YaWd7Z+RYLmO/01tdlNxfXfpqGjpUszIZRzDMac&#xA;dgXxV9cYq7FXmMsQ88/m0gaknlr8v2DkHdJ9dnSq+IP1KFgfFXfFXp2KuxV2KqV0J2tZhbusU5Rh&#xA;FIwqqvQ8WI7gHFXyj/zhtf8AmV/O3m6GYG80+4iWfU9RDB1+urMwiPP9r1VeVtutK4q+s8VdirsV&#xA;dirsVdirsVYH+bn5weX/AMs9Jsr7U4nu57+4WG3sYWVZWjUgzyjltSJD9LFRUVqFWPfm9+UGg/mb&#xA;p8F5ot1b6T5vj+q3kOpMh+sGBEk9KKTiyyRKWl5cgK1UdabKvJ7/APJf/nKuS1k0e48xxappkg4P&#xA;9YvmuIipqvS5jMnT2xVhth/zid+YcnnG18vXdxaLCYUu9T1G2aWWK1hdyiqxeOIPM/BisanpuSBv&#xA;ir7gsLOKxsbayh/urWJIY60rxjUKOlB0GKq+KpZ5nvNXsvL+oXWjWf6Q1eOB/wBH2dQoknIpGGZi&#xA;oC8iORr0xVBeQvKaeVfK9ppBm+tXi859Svj9q5vLhjLczt3+ORiRXoKDtirIMVdirsVfOn/OTP8A&#xA;zkFH5et73yL5bdjr9xGI9UvxstpFMgbhGe8zo3UfYB/m+yqx2aSP8p/+cX9PK/ufNHmi6tr6Kmzi&#xA;T1UukLdG4x28CKfBm98VfT+hava6zomn6xaGtrqNtDdwHr8E6CRfwbFUdirsVdirsVdirsVfIHmf&#xA;zFpfnL86fMfnDXh9Y8k/ltERHaE1S4nhkMVvAK1Um5vKtvsVWhxV4FrHm3zBqvma88y3F5KmsX0z&#xA;3Et1C7RsrOeiFSCqqPhUDoNsVZ/+Vs/50fmH5lg8uaZ5t1qO0489QuW1C7MNvbKaMzL6lCT9lF7n&#xA;2qQq+7tB0eHRdGs9KgmnuY7OJYhcXUrTzycRu8kjklmY7n8KDFUfirsVdirsVdirsVdir5o0n/nH&#xA;+NdY1P8AM/8AOvUrcuszX9zpkBJtECGieu9CXQAKFiQbigJapXFXiv8AzkJ+b8f5j+bYpNOR4vL2&#xA;kxtb6Ykg4tIXIMs7L+z6nFQB/Ko6GuKvpr/nE3zaNd/Ka2sJH5XegTyWEgJ+L0ifVhanhwk4D/Vx&#xA;V7PirsVdirsVdirHPzG8zL5X8h69r/ILJp9lNLbk9DPxKwr/ALKVlGKvgnX7+TR/y00Xy4jUu9en&#xA;fzBq5Jq5jBa2sImP+qks1D19RTirD9K0rUNW1O10vToGub+9lSC2gQVZ5JDxUD6Tir9DfyZ/KrTP&#xA;y48oQ6XCFl1W54z6xfAbyz0+yCd/TjrxQfM9WOKs8xV2KuxV2KuxV2KuxV2Kvmv861vfJ358+VfO&#xA;d7LJN5V1yMaTqkUzFrdI3BguI2Q/CIzFIsvHuyse2Kvmf8zvJk/kvz5rPlyUN6dlcN9Udur20nxw&#xA;P9MbLX3qMVep/wDOHfnX9DfmLP5enfjaeY7cpGD0+tWoaWI/TGZF9yRir7ZxV2KuxV2KuxV4H/zm&#xA;T5ph078trbQVkAu9cvIwYa7m3tf30jfRL6Q+nFXyD5y1eHVvMt9eW3+8QZbfT16cbS1RYLZaH+WG&#xA;NBir6W/5w7/KlEgl/MTVIqyy+pa6AjD7KCqT3A92NY19uXiMVfUmKuxV2KuxV2KuxV2KuxV2KsS/&#xA;NT8vbDz/AOSb/wAuXRWOaVfV0+6YV9C6jBMUnjSp4tTqpIxV8ffmbYan5l8lW2pahA0XnXyFTQfN&#xA;1s3969orEWV7/lKDWN33qSG+yRirybRNXvtG1ix1ewf073T547q2fwkhcOv4jFX6YeUPM1h5o8r6&#xA;X5hsD/oup26XCLWpQsPjjP8AlI9VPuMVTfFXYq7FUNqeoW+nabd6hcmlvZwyXEx22SJS7dfYYq+D&#xA;P+chvzZ8u/mP5h0++0XTp7WOyt/SkurqRjJKXo/piEM8UaxNyFV3Ymp7Yq8z0nTX1LUIrJLi3tWl&#xA;JAnu5VghWgr8cjkKvTFX6aeVdGsdE8s6VpFhT6nYWkNvAy9GWNAob/ZdcVTTFXYq7FXYq7FXYq7F&#xA;XYq7FXYq8W/Pj8tNRmkP5geU7ZZ9fsrZ7XXNJK1j1XS2XjNBKg+26p0/aI6fEqYq+INWTTVv5Tpj&#xA;u1g5526zU9VFbf05CKAsn2Sw2PXatMVfT3/OHP5p2sNvd+QtXukhPM3ehGVgoYyGk9upNBXlSRV6&#xA;mrYq+qsVdiqCuNc0W2vUsbnULaC9kXnHayTRpKy1pyCMQxFfbFWP/m3aajd/lf5qttN5G9l0u7WJ&#xA;UBLN+6bkigEbstVGKvgfTfJkeqflnqnmSwSWfUtE1GGPVIkIKxafcxN6UxSlf7+NlLV79O+KsYsJ&#xA;LaO+tpLpPVtklRp4jWjIGBZdt9xir9SomjaJGiIMbKChXpxI2piq7FXYq7FXYq7FXYq7FXYq7FXY&#xA;q7FXwt/zlV+Wtt5R8/DVbBo103zL6t3DaICrQzR8BOKABOLPJyWh7kUFASq8VVmVgykqymqsNiCM&#xA;VeveV/8AnKr84dCjSGXUIdZt4wFWPUoRI1B/xbEYpWPuznFXo+jf85laoEivNdt9PMFTy0rToLpr&#xA;tuw5TXEiW8S96r6hPTiPtBV5bo2la3+ef50Tz+i9tb6lcfWtRYMZBaWEXFKcyFqQgVE2FWI6DFX6&#xA;AEAih3B6jFXzx+cGkaT+UWu2v5g+XtChl0HV47jR/NugxH0ba4W5j5QPw4yJH8SEOQlD0pVjVV8m&#xA;z+TPMlv5Yt/M9xZ+jol5I0VpcySxI0zKxVvSiZxK6qwILKlPfFX2/wD842fmdYecfy9sbCWdf0/o&#xA;UKWWoWzMPUaOIBIbgDqVdAOR/nr7Yq9axV2KuxV2KuxV2KuxV2KuxV2KuxV5r+eOj6UukaX5zvtI&#xA;TWv8HXRvZrFo1l9SymT0bsBJPgJRSswr3jGKvifS/KVl5x8262dHvLPQfLlvJcXiXmrSi3it7Npi&#xA;IEbj6haQhlVUStT9+Kq7/ltBqlyNP8jX935y1NSDcrYabPFaxRnbk887I4+LYcogp/m7Yq9A8pf8&#xA;4dfmZqk0T69La6BZkj1ecgurgL/kxwkxk/OUYq+rPy0/K3yr+Xeh/ovQoWLykPe381GuLiQCgMjA&#xA;DZf2VGw+ZJKrFtW/Mj8wdFWSWfTLXWPQ8xHR3tNOgnSd7GOwe/luYxJM4MojTaPpUEVNRiqY6fDd&#xA;/mn5D8w6R5v0v9FQ3dzJa21rQ+vDB6cVxayy8iw9dDIGYCgDClPFV8zXf5Ufnb+VVzqiWGiw+ZPL&#xA;uoIIb0x2y30FzCvIL6kI/wBKhIDmrJxp2Y9cVeRWutaz5f8AMQ1PSDNoeo2snOBY2dXhP8nx/ERT&#xA;Yhq1HWuKv0l8mahqWpeT9C1HVI/S1O90+1uL6LiU4zywI8q8T9mjsdsVTjFXYq7FXYq7FXYq7FXY&#xA;q7FXYqtliilieKVFkikUrJGwDKysKEEHYgjFXyX+Y3/OHmu3HnL1vJMtrD5ev2Mjx3UjJ9RatWQA&#xA;B2kjP7FBUdD05FV7X+SH5KWP5X6TfQpqMmpajqphe+mKiOEGAPwWKOrEU9VqsWq23Tpir0vFXYq/&#xA;/9k=</xmpGImg:image>
               </rdf:li>
            </rdf:Alt>
         </xmp:Thumbnails>
      </rdf:Description>
      <rdf:Description rdf:about=""
            xmlns:xmpMM="http://ns.adobe.com/xap/1.0/mm/"
            xmlns:stRef="http://ns.adobe.com/xap/1.0/sType/ResourceRef#"
            xmlns:stEvt="http://ns.adobe.com/xap/1.0/sType/ResourceEvent#">
         <xmpMM:RenditionClass>proof:pdf</xmpMM:RenditionClass>
         <xmpMM:OriginalDocumentID>uuid:65E6390686CF11DBA6E2D887CEACB407</xmpMM:OriginalDocumentID>
         <xmpMM:DocumentID>xmp.did:DB538AD4903EED11BBAAD3B2502DC548</xmpMM:DocumentID>
         <xmpMM:InstanceID>xmp.iid:DB538AD4903EED11BBAAD3B2502DC548</xmpMM:InstanceID>
         <xmpMM:DerivedFrom rdf:parseType="Resource">
            <stRef:instanceID>uuid:24a43463-4df4-4047-b107-acbad3fbb7ea</stRef:instanceID>
            <stRef:documentID>xmp.did:66A6819719206811822A897E387FE54C</stRef:documentID>
            <stRef:originalDocumentID>uuid:65E6390686CF11DBA6E2D887CEACB407</stRef:originalDocumentID>
            <stRef:renditionClass>proof:pdf</stRef:renditionClass>
         </xmpMM:DerivedFrom>
         <xmpMM:History>
            <rdf:Seq>
               <rdf:li rdf:parseType="Resource">
                  <stEvt:action>saved</stEvt:action>
                  <stEvt:instanceID>xmp.iid:DB538AD4903EED11BBAAD3B2502DC548</stEvt:instanceID>
                  <stEvt:when>2022-09-27T19:47:49+01:00</stEvt:when>
                  <stEvt:softwareAgent>Adobe Illustrator CS6 (Windows)</stEvt:softwareAgent>
                  <stEvt:changed>/</stEvt:changed>
               </rdf:li>
            </rdf:Seq>
         </xmpMM:History>
      </rdf:Description>
      <rdf:Description rdf:about=""
            xmlns:illustrator="http://ns.adobe.com/illustrator/1.0/">
         <illustrator:StartupProfile>Web</illustrator:StartupProfile>
      </rdf:Description>
      <rdf:Description rdf:about=""
            xmlns:xmpTPg="http://ns.adobe.com/xap/1.0/t/pg/"
            xmlns:stDim="http://ns.adobe.com/xap/1.0/sType/Dimensions#"
            xmlns:xmpG="http://ns.adobe.com/xap/1.0/g/">
         <xmpTPg:NPages>1</xmpTPg:NPages>
         <xmpTPg:HasVisibleTransparency>False</xmpTPg:HasVisibleTransparency>
         <xmpTPg:HasVisibleOverprint>False</xmpTPg:HasVisibleOverprint>
         <xmpTPg:MaxPageSize rdf:parseType="Resource">
            <stDim:w>263.000000</stDim:w>
            <stDim:h>433.000000</stDim:h>
            <stDim:unit>Pixels</stDim:unit>
         </xmpTPg:MaxPageSize>
         <xmpTPg:PlateNames>
            <rdf:Seq>
               <rdf:li>Black</rdf:li>
            </rdf:Seq>
         </xmpTPg:PlateNames>
         <xmpTPg:SwatchGroups>
            <rdf:Seq>
               <rdf:li rdf:parseType="Resource">
                  <xmpG:groupName>Grupo de muestras por defecto</xmpG:groupName>
                  <xmpG:groupType>0</xmpG:groupType>
                  <xmpG:Colorants>
                     <rdf:Seq>
                        <rdf:li rdf:parseType="Resource">
                           <xmpG:swatchName>Blanco</xmpG:swatchName>
                           <xmpG:mode>RGB</xmpG:mode>
                           <xmpG:type>PROCESS</xmpG:type>
                           <xmpG:red>255</xmpG:red>
                           <xmpG:green>255</xmpG:green>
                           <xmpG:blue>255</xmpG:blue>
                        </rdf:li>
                        <rdf:li rdf:parseType="Resource">
                           <xmpG:swatchName>Negro</xmpG:swatchName>
                           <xmpG:mode>RGB</xmpG:mode>
                           <xmpG:type>PROCESS</xmpG:type>
                           <xmpG:red>0</xmpG:red>
                           <xmpG:green>0</xmpG:green>
                           <xmpG:blue>0</xmpG:blue>
                        </rdf:li>
                        <rdf:li rdf:parseType="Resource">
                           <xmpG:swatchName>Rojo RGB</xmpG:swatchName>
                           <xmpG:mode>RGB</xmpG:mode>
                           <xmpG:type>PROCESS</xmpG:type>
                           <xmpG:red>255</xmpG:red>
                           <xmpG:green>0</xmpG:green>
                           <xmpG:blue>0</xmpG:blue>
                        </rdf:li>
                        <rdf:li rdf:parseType="Resource">
                           <xmpG:swatchName>Amarillo RGB</xmpG:swatchName>
                           <xmpG:mode>RGB</xmpG:mode>
                           <xmpG:type>PROCESS</xmpG:type>
                           <xmpG:red>255</xmpG:red>
                           <xmpG:green>255</xmpG:green>
                           <xmpG:blue>0</xmpG:blue>
                        </rdf:li>
                        <rdf:li rdf:parseType="Resource">
                           <xmpG:swatchName>Verde RGB</xmpG:swatchName>
                           <xmpG:mode>RGB</xmpG:mode>
                           <xmpG:type>PROCESS</xmpG:type>
                           <xmpG:red>0</xmpG:red>
                           <xmpG:green>255</xmpG:green>
                           <xmpG:blue>0</xmpG:blue>
                        </rdf:li>
                        <rdf:li rdf:parseType="Resource">
                           <xmpG:swatchName>Cian RGB</xmpG:swatchName>
                           <xmpG:mode>RGB</xmpG:mode>
                           <xmpG:type>PROCESS</xmpG:type>
                           <xmpG:red>0</xmpG:red>
                           <xmpG:green>255</xmpG:green>
                           <xmpG:blue>255</xmpG:blue>
                        </rdf:li>
                        <rdf:li rdf:parseType="Resource">
                           <xmpG:swatchName>Azul RGB</xmpG:swatchName>
                           <xmpG:mode>RGB</xmpG:mode>
                           <xmpG:type>PROCESS</xmpG:type>
                           <xmpG:red>0</xmpG:red>
                           <xmpG:green>0</xmpG:green>
                           <xmpG:blue>255</xmpG:blue>
                        </rdf:li>
                        <rdf:li rdf:parseType="Resource">
                           <xmpG:swatchName>Magenta RGB</xmpG:swatchName>
                           <xmpG:mode>RGB</xmpG:mode>
                           <xmpG:type>PROCESS</xmpG:type>
                           <xmpG:red>255</xmpG:red>
                           <xmpG:green>0</xmpG:green>
                           <xmpG:blue>255</xmpG:blue>
                        </rdf:li>
                        <rdf:li rdf:parseType="Resource">
                           <xmpG:swatchName>R=193 G=39 B=45</xmpG:swatchName>
                           <xmpG:mode>RGB</xmpG:mode>
                           <xmpG:type>PROCESS</xmpG:type>
                           <xmpG:red>193</xmpG:red>
                           <xmpG:green>39</xmpG:green>
                           <xmpG:blue>45</xmpG:blue>
                        </rdf:li>
                        <rdf:li rdf:parseType="Resource">
                           <xmpG:swatchName>R=237 G=28 B=36</xmpG:swatchName>
                           <xmpG:mode>RGB</xmpG:mode>
                           <xmpG:type>PROCESS</xmpG:type>
                           <xmpG:red>237</xmpG:red>
                           <xmpG:green>28</xmpG:green>
                           <xmpG:blue>36</xmpG:blue>
                        </rdf:li>
                        <rdf:li rdf:parseType="Resource">
                           <xmpG:swatchName>R=241 G=90 B=36</xmpG:swatchName>
                           <xmpG:mode>RGB</xmpG:mode>
                           <xmpG:type>PROCESS</xmpG:type>
                           <xmpG:red>241</xmpG:red>
                           <xmpG:green>90</xmpG:green>
                           <xmpG:blue>36</xmpG:blue>
                        </rdf:li>
                        <rdf:li rdf:parseType="Resource">
                           <xmpG:swatchName>R=247 G=147 B=30</xmpG:swatchName>
                           <xmpG:mode>RGB</xmpG:mode>
                           <xmpG:type>PROCESS</xmpG:type>
                           <xmpG:red>247</xmpG:red>
                           <xmpG:green>147</xmpG:green>
                           <xmpG:blue>30</xmpG:blue>
                        </rdf:li>
                        <rdf:li rdf:parseType="Resource">
                           <xmpG:swatchName>R=251 G=176 B=59</xmpG:swatchName>
                           <xmpG:mode>RGB</xmpG:mode>
                           <xmpG:type>PROCESS</xmpG:type>
                           <xmpG:red>251</xmpG:red>
                           <xmpG:green>176</xmpG:green>
                           <xmpG:blue>59</xmpG:blue>
                        </rdf:li>
                        <rdf:li rdf:parseType="Resource">
                           <xmpG:swatchName>R=252 G=238 B=33</xmpG:swatchName>
                           <xmpG:mode>RGB</xmpG:mode>
                           <xmpG:type>PROCESS</xmpG:type>
                           <xmpG:red>252</xmpG:red>
                           <xmpG:green>238</xmpG:green>
                           <xmpG:blue>33</xmpG:blue>
                        </rdf:li>
                        <rdf:li rdf:parseType="Resource">
                           <xmpG:swatchName>R=217 G=224 B=33</xmpG:swatchName>
                           <xmpG:mode>RGB</xmpG:mode>
                           <xmpG:type>PROCESS</xmpG:type>
                           <xmpG:red>217</xmpG:red>
                           <xmpG:green>224</xmpG:green>
                           <xmpG:blue>33</xmpG:blue>
                        </rdf:li>
                        <rdf:li rdf:parseType="Resource">
                           <xmpG:swatchName>R=140 G=198 B=63</xmpG:swatchName>
                           <xmpG:mode>RGB</xmpG:mode>
                           <xmpG:type>PROCESS</xmpG:type>
                           <xmpG:red>140</xmpG:red>
                           <xmpG:green>198</xmpG:green>
                           <xmpG:blue>63</xmpG:blue>
                        </rdf:li>
                        <rdf:li rdf:parseType="Resource">
                           <xmpG:swatchName>R=57 G=181 B=74</xmpG:swatchName>
                           <xmpG:mode>RGB</xmpG:mode>
                           <xmpG:type>PROCESS</xmpG:type>
                           <xmpG:red>57</xmpG:red>
                           <xmpG:green>181</xmpG:green>
                           <xmpG:blue>74</xmpG:blue>
                        </rdf:li>
                        <rdf:li rdf:parseType="Resource">
                           <xmpG:swatchName>R=0 G=146 B=69</xmpG:swatchName>
                           <xmpG:mode>RGB</xmpG:mode>
                           <xmpG:type>PROCESS</xmpG:type>
                           <xmpG:red>0</xmpG:red>
                           <xmpG:green>146</xmpG:green>
                           <xmpG:blue>69</xmpG:blue>
                        </rdf:li>
                        <rdf:li rdf:parseType="Resource">
                           <xmpG:swatchName>R=0 G=104 B=55</xmpG:swatchName>
                           <xmpG:mode>RGB</xmpG:mode>
                           <xmpG:type>PROCESS</xmpG:type>
                           <xmpG:red>0</xmpG:red>
                           <xmpG:green>104</xmpG:green>
                           <xmpG:blue>55</xmpG:blue>
                        </rdf:li>
                        <rdf:li rdf:parseType="Resource">
                           <xmpG:swatchName>R=34 G=181 B=115</xmpG:swatchName>
                           <xmpG:mode>RGB</xmpG:mode>
                           <xmpG:type>PROCESS</xmpG:type>
                           <xmpG:red>34</xmpG:red>
                           <xmpG:green>181</xmpG:green>
                           <xmpG:blue>115</xmpG:blue>
                        </rdf:li>
                        <rdf:li rdf:parseType="Resource">
                           <xmpG:swatchName>R=0 G=169 B=157</xmpG:swatchName>
                           <xmpG:mode>RGB</xmpG:mode>
                           <xmpG:type>PROCESS</xmpG:type>
                           <xmpG:red>0</xmpG:red>
                           <xmpG:green>169</xmpG:green>
                           <xmpG:blue>157</xmpG:blue>
                        </rdf:li>
                        <rdf:li rdf:parseType="Resource">
                           <xmpG:swatchName>R=41 G=171 B=226</xmpG:swatchName>
                           <xmpG:mode>RGB</xmpG:mode>
                           <xmpG:type>PROCESS</xmpG:type>
                           <xmpG:red>41</xmpG:red>
                           <xmpG:green>171</xmpG:green>
                           <xmpG:blue>226</xmpG:blue>
                        </rdf:li>
                        <rdf:li rdf:parseType="Resource">
                           <xmpG:swatchName>R=0 G=113 B=188</xmpG:swatchName>
                           <xmpG:mode>RGB</xmpG:mode>
                           <xmpG:type>PROCESS</xmpG:type>
                           <xmpG:red>0</xmpG:red>
                           <xmpG:green>113</xmpG:green>
                           <xmpG:blue>188</xmpG:blue>
                        </rdf:li>
                        <rdf:li rdf:parseType="Resource">
                           <xmpG:swatchName>R=46 G=49 B=146</xmpG:swatchName>
                           <xmpG:mode>RGB</xmpG:mode>
                           <xmpG:type>PROCESS</xmpG:type>
                           <xmpG:red>46</xmpG:red>
                           <xmpG:green>49</xmpG:green>
                           <xmpG:blue>146</xmpG:blue>
                        </rdf:li>
                        <rdf:li rdf:parseType="Resource">
                           <xmpG:swatchName>R=27 G=20 B=100</xmpG:swatchName>
                           <xmpG:mode>RGB</xmpG:mode>
                           <xmpG:type>PROCESS</xmpG:type>
                           <xmpG:red>27</xmpG:red>
                           <xmpG:green>20</xmpG:green>
                           <xmpG:blue>100</xmpG:blue>
                        </rdf:li>
                        <rdf:li rdf:parseType="Resource">
                           <xmpG:swatchName>R=102 G=45 B=145</xmpG:swatchName>
                           <xmpG:mode>RGB</xmpG:mode>
                           <xmpG:type>PROCESS</xmpG:type>
                           <xmpG:red>102</xmpG:red>
                           <xmpG:green>45</xmpG:green>
                           <xmpG:blue>145</xmpG:blue>
                        </rdf:li>
                        <rdf:li rdf:parseType="Resource">
                           <xmpG:swatchName>R=147 G=39 B=143</xmpG:swatchName>
                           <xmpG:mode>RGB</xmpG:mode>
                           <xmpG:type>PROCESS</xmpG:type>
                           <xmpG:red>147</xmpG:red>
                           <xmpG:green>39</xmpG:green>
                           <xmpG:blue>143</xmpG:blue>
                        </rdf:li>
                        <rdf:li rdf:parseType="Resource">
                           <xmpG:swatchName>R=158 G=0 B=93</xmpG:swatchName>
                           <xmpG:mode>RGB</xmpG:mode>
                           <xmpG:type>PROCESS</xmpG:type>
                           <xmpG:red>158</xmpG:red>
                           <xmpG:green>0</xmpG:green>
                           <xmpG:blue>93</xmpG:blue>
                        </rdf:li>
                        <rdf:li rdf:parseType="Resource">
                           <xmpG:swatchName>R=212 G=20 B=90</xmpG:swatchName>
                           <xmpG:mode>RGB</xmpG:mode>
                           <xmpG:type>PROCESS</xmpG:type>
                           <xmpG:red>212</xmpG:red>
                           <xmpG:green>20</xmpG:green>
                           <xmpG:blue>90</xmpG:blue>
                        </rdf:li>
                        <rdf:li rdf:parseType="Resource">
                           <xmpG:swatchName>R=237 G=30 B=121</xmpG:swatchName>
                           <xmpG:mode>RGB</xmpG:mode>
                           <xmpG:type>PROCESS</xmpG:type>
                           <xmpG:red>237</xmpG:red>
                           <xmpG:green>30</xmpG:green>
                           <xmpG:blue>121</xmpG:blue>
                        </rdf:li>
                        <rdf:li rdf:parseType="Resource">
                           <xmpG:swatchName>R=199 G=178 B=153</xmpG:swatchName>
                           <xmpG:mode>RGB</xmpG:mode>
                           <xmpG:type>PROCESS</xmpG:type>
                           <xmpG:red>199</xmpG:red>
                           <xmpG:green>178</xmpG:green>
                           <xmpG:blue>153</xmpG:blue>
                        </rdf:li>
                        <rdf:li rdf:parseType="Resource">
                           <xmpG:swatchName>R=153 G=134 B=117</xmpG:swatchName>
                           <xmpG:mode>RGB</xmpG:mode>
                           <xmpG:type>PROCESS</xmpG:type>
                           <xmpG:red>153</xmpG:red>
                           <xmpG:green>134</xmpG:green>
                           <xmpG:blue>117</xmpG:blue>
                        </rdf:li>
                        <rdf:li rdf:parseType="Resource">
                           <xmpG:swatchName>R=115 G=99 B=87</xmpG:swatchName>
                           <xmpG:mode>RGB</xmpG:mode>
                           <xmpG:type>PROCESS</xmpG:type>
                           <xmpG:red>115</xmpG:red>
                           <xmpG:green>99</xmpG:green>
                           <xmpG:blue>87</xmpG:blue>
                        </rdf:li>
                        <rdf:li rdf:parseType="Resource">
                           <xmpG:swatchName>R=83 G=71 B=65</xmpG:swatchName>
                           <xmpG:mode>RGB</xmpG:mode>
                           <xmpG:type>PROCESS</xmpG:type>
                           <xmpG:red>83</xmpG:red>
                           <xmpG:green>71</xmpG:green>
                           <xmpG:blue>65</xmpG:blue>
                        </rdf:li>
                        <rdf:li rdf:parseType="Resource">
                           <xmpG:swatchName>R=198 G=156 B=109</xmpG:swatchName>
                           <xmpG:mode>RGB</xmpG:mode>
                           <xmpG:type>PROCESS</xmpG:type>
                           <xmpG:red>198</xmpG:red>
                           <xmpG:green>156</xmpG:green>
                           <xmpG:blue>109</xmpG:blue>
                        </rdf:li>
                        <rdf:li rdf:parseType="Resource">
                           <xmpG:swatchName>R=166 G=124 B=82</xmpG:swatchName>
                           <xmpG:mode>RGB</xmpG:mode>
                           <xmpG:type>PROCESS</xmpG:type>
                           <xmpG:red>166</xmpG:red>
                           <xmpG:green>124</xmpG:green>
                           <xmpG:blue>82</xmpG:blue>
                        </rdf:li>
                        <rdf:li rdf:parseType="Resource">
                           <xmpG:swatchName>R=140 G=98 B=57</xmpG:swatchName>
                           <xmpG:mode>RGB</xmpG:mode>
                           <xmpG:type>PROCESS</xmpG:type>
                           <xmpG:red>140</xmpG:red>
                           <xmpG:green>98</xmpG:green>
                           <xmpG:blue>57</xmpG:blue>
                        </rdf:li>
                        <rdf:li rdf:parseType="Resource">
                           <xmpG:swatchName>R=117 G=76 B=36</xmpG:swatchName>
                           <xmpG:mode>RGB</xmpG:mode>
                           <xmpG:type>PROCESS</xmpG:type>
                           <xmpG:red>117</xmpG:red>
                           <xmpG:green>76</xmpG:green>
                           <xmpG:blue>36</xmpG:blue>
                        </rdf:li>
                        <rdf:li rdf:parseType="Resource">
                           <xmpG:swatchName>R=96 G=56 B=19</xmpG:swatchName>
                           <xmpG:mode>RGB</xmpG:mode>
                           <xmpG:type>PROCESS</xmpG:type>
                           <xmpG:red>96</xmpG:red>
                           <xmpG:green>56</xmpG:green>
                           <xmpG:blue>19</xmpG:blue>
                        </rdf:li>
                        <rdf:li rdf:parseType="Resource">
                           <xmpG:swatchName>R=66 G=33 B=11</xmpG:swatchName>
                           <xmpG:mode>RGB</xmpG:mode>
                           <xmpG:type>PROCESS</xmpG:type>
                           <xmpG:red>66</xmpG:red>
                           <xmpG:green>33</xmpG:green>
                           <xmpG:blue>11</xmpG:blue>
                        </rdf:li>
                     </rdf:Seq>
                  </xmpG:Colorants>
               </rdf:li>
               <rdf:li rdf:parseType="Resource">
                  <xmpG:groupName>Grises</xmpG:groupName>
                  <xmpG:groupType>1</xmpG:groupType>
                  <xmpG:Colorants>
                     <rdf:Seq>
                        <rdf:li rdf:parseType="Resource">
                           <xmpG:swatchName>R=0 G=0 B=0</xmpG:swatchName>
                           <xmpG:mode>RGB</xmpG:mode>
                           <xmpG:type>PROCESS</xmpG:type>
                           <xmpG:red>0</xmpG:red>
                           <xmpG:green>0</xmpG:green>
                           <xmpG:blue>0</xmpG:blue>
                        </rdf:li>
                        <rdf:li rdf:parseType="Resource">
                           <xmpG:swatchName>R=26 G=26 B=26</xmpG:swatchName>
                           <xmpG:mode>RGB</xmpG:mode>
                           <xmpG:type>PROCESS</xmpG:type>
                           <xmpG:red>26</xmpG:red>
                           <xmpG:green>26</xmpG:green>
                           <xmpG:blue>26</xmpG:blue>
                        </rdf:li>
                        <rdf:li rdf:parseType="Resource">
                           <xmpG:swatchName>R=51 G=51 B=51</xmpG:swatchName>
                           <xmpG:mode>RGB</xmpG:mode>
                           <xmpG:type>PROCESS</xmpG:type>
                           <xmpG:red>51</xmpG:red>
                           <xmpG:green>51</xmpG:green>
                           <xmpG:blue>51</xmpG:blue>
                        </rdf:li>
                        <rdf:li rdf:parseType="Resource">
                           <xmpG:swatchName>R=77 G=77 B=77</xmpG:swatchName>
                           <xmpG:mode>RGB</xmpG:mode>
                           <xmpG:type>PROCESS</xmpG:type>
                           <xmpG:red>77</xmpG:red>
                           <xmpG:green>77</xmpG:green>
                           <xmpG:blue>77</xmpG:blue>
                        </rdf:li>
                        <rdf:li rdf:parseType="Resource">
                           <xmpG:swatchName>R=102 G=102 B=102</xmpG:swatchName>
                           <xmpG:mode>RGB</xmpG:mode>
                           <xmpG:type>PROCESS</xmpG:type>
                           <xmpG:red>102</xmpG:red>
                           <xmpG:green>102</xmpG:green>
                           <xmpG:blue>102</xmpG:blue>
                        </rdf:li>
                        <rdf:li rdf:parseType="Resource">
                           <xmpG:swatchName>R=128 G=128 B=128</xmpG:swatchName>
                           <xmpG:mode>RGB</xmpG:mode>
                           <xmpG:type>PROCESS</xmpG:type>
                           <xmpG:red>128</xmpG:red>
                           <xmpG:green>128</xmpG:green>
                           <xmpG:blue>128</xmpG:blue>
                        </rdf:li>
                        <rdf:li rdf:parseType="Resource">
                           <xmpG:swatchName>R=153 G=153 B=153</xmpG:swatchName>
                           <xmpG:mode>RGB</xmpG:mode>
                           <xmpG:type>PROCESS</xmpG:type>
                           <xmpG:red>153</xmpG:red>
                           <xmpG:green>153</xmpG:green>
                           <xmpG:blue>153</xmpG:blue>
                        </rdf:li>
                        <rdf:li rdf:parseType="Resource">
                           <xmpG:swatchName>R=179 G=179 B=179</xmpG:swatchName>
                           <xmpG:mode>RGB</xmpG:mode>
                           <xmpG:type>PROCESS</xmpG:type>
                           <xmpG:red>179</xmpG:red>
                           <xmpG:green>179</xmpG:green>
                           <xmpG:blue>179</xmpG:blue>
                        </rdf:li>
                        <rdf:li rdf:parseType="Resource">
                           <xmpG:swatchName>R=204 G=204 B=204</xmpG:swatchName>
                           <xmpG:mode>RGB</xmpG:mode>
                           <xmpG:type>PROCESS</xmpG:type>
                           <xmpG:red>204</xmpG:red>
                           <xmpG:green>204</xmpG:green>
                           <xmpG:blue>204</xmpG:blue>
                        </rdf:li>
                        <rdf:li rdf:parseType="Resource">
                           <xmpG:swatchName>R=230 G=230 B=230</xmpG:swatchName>
                           <xmpG:mode>RGB</xmpG:mode>
                           <xmpG:type>PROCESS</xmpG:type>
                           <xmpG:red>230</xmpG:red>
                           <xmpG:green>230</xmpG:green>
                           <xmpG:blue>230</xmpG:blue>
                        </rdf:li>
                        <rdf:li rdf:parseType="Resource">
                           <xmpG:swatchName>R=242 G=242 B=242</xmpG:swatchName>
                           <xmpG:mode>RGB</xmpG:mode>
                           <xmpG:type>PROCESS</xmpG:type>
                           <xmpG:red>242</xmpG:red>
                           <xmpG:green>242</xmpG:green>
                           <xmpG:blue>242</xmpG:blue>
                        </rdf:li>
                     </rdf:Seq>
                  </xmpG:Colorants>
               </rdf:li>
               <rdf:li rdf:parseType="Resource">
                  <xmpG:groupName>Grupo de colores Web</xmpG:groupName>
                  <xmpG:groupType>1</xmpG:groupType>
                  <xmpG:Colorants>
                     <rdf:Seq>
                        <rdf:li rdf:parseType="Resource">
                           <xmpG:swatchName>R=63 G=169 B=245</xmpG:swatchName>
                           <xmpG:mode>RGB</xmpG:mode>
                           <xmpG:type>PROCESS</xmpG:type>
                           <xmpG:red>63</xmpG:red>
                           <xmpG:green>169</xmpG:green>
                           <xmpG:blue>245</xmpG:blue>
                        </rdf:li>
                        <rdf:li rdf:parseType="Resource">
                           <xmpG:swatchName>R=122 G=201 B=67</xmpG:swatchName>
                           <xmpG:mode>RGB</xmpG:mode>
                           <xmpG:type>PROCESS</xmpG:type>
                           <xmpG:red>122</xmpG:red>
                           <xmpG:green>201</xmpG:green>
                           <xmpG:blue>67</xmpG:blue>
                        </rdf:li>
                        <rdf:li rdf:parseType="Resource">
                           <xmpG:swatchName>R=255 G=147 B=30</xmpG:swatchName>
                           <xmpG:mode>RGB</xmpG:mode>
                           <xmpG:type>PROCESS</xmpG:type>
                           <xmpG:red>255</xmpG:red>
                           <xmpG:green>147</xmpG:green>
                           <xmpG:blue>30</xmpG:blue>
                        </rdf:li>
                        <rdf:li rdf:parseType="Resource">
                           <xmpG:swatchName>R=255 G=29 B=37</xmpG:swatchName>
                           <xmpG:mode>RGB</xmpG:mode>
                           <xmpG:type>PROCESS</xmpG:type>
                           <xmpG:red>255</xmpG:red>
                           <xmpG:green>29</xmpG:green>
                           <xmpG:blue>37</xmpG:blue>
                        </rdf:li>
                        <rdf:li rdf:parseType="Resource">
                           <xmpG:swatchName>R=255 G=123 B=172</xmpG:swatchName>
                           <xmpG:mode>RGB</xmpG:mode>
                           <xmpG:type>PROCESS</xmpG:type>
                           <xmpG:red>255</xmpG:red>
                           <xmpG:green>123</xmpG:green>
                           <xmpG:blue>172</xmpG:blue>
                        </rdf:li>
                        <rdf:li rdf:parseType="Resource">
                           <xmpG:swatchName>R=189 G=204 B=212</xmpG:swatchName>
                           <xmpG:mode>RGB</xmpG:mode>
                           <xmpG:type>PROCESS</xmpG:type>
                           <xmpG:red>189</xmpG:red>
                           <xmpG:green>204</xmpG:green>
                           <xmpG:blue>212</xmpG:blue>
                        </rdf:li>
                     </rdf:Seq>
                  </xmpG:Colorants>
               </rdf:li>
            </rdf:Seq>
         </xmpTPg:SwatchGroups>
      </rdf:Description>
      <rdf:Description rdf:about=""
            xmlns:pdf="http://ns.adobe.com/pdf/1.3/">
         <pdf:Producer>Adobe PDF library 10.01</pdf:Producer>
      </rdf:Description>
   </rdf:RDF>
</x:xmpmeta>
                                                                                                    
                                                                                                    
                                                                                                    
                                                                                                    
                                                                                                    
                                                                                                    
                                                                                                    
                                                                                                    
                                                                                                    
                                                                                                    
                                                                                                    
                                                                                                    
                                                                                                    
                                                                                                    
                                                                                                    
                                                                                                    
                                                                                                    
                                                                                                    
                                                                                                    
                                                                                                    
                           
<?xpacket end="w"?>
	</metadata>
<g>
	<path fill-rule="evenodd" clip-rule="evenodd" fill="#FFFFFF" d="M163.824,161.299c3.405-11.753,6.983-23.27,8.377-35.027
		c6.903,1.244,13.555,2.518,20.232,3.625c8.14,1.35,16.344,1.605,24.575,1.108c3.234-0.196,5.93-1.612,8.363-3.617
		c1.28-1.055,1.939-2.428,1.287-4.06c-0.907-2.259-1.678-4.642-2.991-6.655c-2.618-4.013-5.584-7.797-8.371-11.701
		c-2.12-2.968-4.287-5.909-4.58-9.765c-0.041-0.548-0.684-1.415-1.159-1.5c-1.645-0.293-2.982-0.625-4.182-2.128
		c-0.7-0.877-1.662-1.528-2.021-2.723c-0.208-0.695-0.498-1.425-0.947-1.98c-1.879-2.324-2.928-5.03-3.573-7.875
		c-0.445-1.963-1.128-3.424-3.439-3.369c-0.113,0.003-0.229-0.123-0.246-0.133c0.313-0.365,0.808-0.794,0.746-0.896
		c-0.494-0.841-0.939-2.073-1.692-2.332c-1.856-0.637-3.85-0.508-5.77,0.247c1.43,0.117,1.787,1.005,1.776,2.212
		c-0.002,0.305,0.041,0.854,0.16,0.882c1.503,0.35,1.187,1.538,1.178,2.527c1.458,0.667,1.729,1.348,1.16,2.748
		c-0.277,0.677-0.532,1.364-0.803,2.043c-0.328,0.814-0.544,1.753-1.822,1.31c-0.201-0.07-0.534,0.237-0.807,0.369
		c-0.511,0.248-1.2,0.825-1.487,0.667c-0.456-0.249-0.82-0.962-0.91-1.529c-0.423-2.63-1.137-5.27-0.171-7.936
		c0.031-0.084-0.089-0.223-0.138-0.336c-0.145-0.022-0.288-0.045-0.432-0.067c-0.363,1.805-0.726,3.61-1.127,5.606
		c-0.378-0.467-0.573-0.874-0.895-1.069c-0.806-0.49-1.64-0.967-2.523-1.275c-0.31-0.107-0.915,0.199-1.157,0.499
		c-0.135,0.169,0.149,0.739,0.329,1.084c0.679,1.303,1.595,2.521,2.052,3.894c0.987,2.958,2.9,4.972,5.63,6.323
		c0.744,0.368,1.502,0.721,2.202,1.162c1.44,0.904,3.094,1.639,4.198,2.86c1.226,1.354,2.397,2.143,4.237,1.954
		c0.405-0.042,0.859,0.376,1.29,0.582c-0.289,0.437-0.487,1.001-0.886,1.286c-1.639,1.171-4.409,0.974-5.943-0.349
		c-0.385-0.332-0.69-0.837-1.13-0.998c-0.447-0.164-1.109-0.159-1.499,0.071c-0.263,0.155-0.319,0.839-0.291,1.275
		c0.087,1.322,0.259,2.638,0.397,3.956c0.07,0.683,0.051,1.393,0.256,2.03c0.064,0.198,0.88,0.408,1.109,0.253
		c1.374-0.928,2.021-0.839,2.895,0.567c0.682,1.095,0.479,1.68-0.74,2.066c-0.558,0.177-1.133,0.3-2.14,0.561
		c2.987,3.026,6.39,4.015,10.316,3.783c-0.002,0.192-0.005,0.385-0.008,0.578c-0.645,0.443-1.29,0.886-1.926,1.322
		c1.273,5.089,5.224,7.938,9.225,10.773c-4.297-1.375-8.13-3.323-10.433-7.396c-0.318-0.563-0.534-1.193-0.914-1.706
		c-0.242-0.329-0.727-0.717-1.059-0.679c-0.346,0.041-0.823,0.508-0.919,0.875c-0.231,0.882-0.282,1.812-0.39,2.724
		c-0.06,0.503-0.089,1.011-0.145,1.649c-2.497-1.794-2.772-4.197-1.587-6.619c-1.2-1.727-2.068-3.233-3.186-4.526
		c-1.453-1.681-3.457-2.62-5.656-2.484c-3.412,0.211-5.651-1.469-7.625-3.936c-0.734-0.917-1.612-1.82-2.614-2.405
		c-3.851-2.245-7.981-1.507-12.181-1.035c0.184,1.757,0.646,3.28,1.936,4.289c2.154,1.684,2.645,3.762,1.933,6.282
		c-0.175,0.62-0.226,1.272-0.359,1.905c-0.384,1.813-0.072,3.429,1.043,4.973c1.688,2.338,2.397,4.965,1.819,7.858
		c-0.588,2.941-1.008,5.929-1.803,8.813c-1.397,5.061-3.004,10.065-4.577,15.076c-0.243,0.771-0.78,1.452-1.181,2.175
		c-0.149-0.038-0.299-0.075-0.448-0.113c-0.975-9.061-2.942-17.889-6.015-26.457c-3.1-8.645-7.25-16.771-12.306-24.425
		c-5.889-8.912-15.511-20.19-17.729-20.658c0.323,3.674-0.405,6.925-4.102,8.856c1.4,0.493,2.614,0.715,3.775,1.099
		c1.124,0.371,2.321,0.715,3.178,1.976c-3.085-0.148-5.928-0.285-8.767-0.421c-0.034,0.188-0.068,0.377-0.103,0.565
		c0.557,0.257,1.136,0.477,1.669,0.774c2.405,1.337,4.822,2.661,7.181,4.079c0.5,0.299,0.776,0.97,1.157,1.47
		c-0.094,0.109-0.187,0.219-0.278,0.329c-0.394-0.054-0.788-0.089-1.177-0.163c-3.809-0.716-7.605-1.496-11.426-2.141
		c-3.362-0.568-6.721-0.477-9.97,0.708c-0.679,0.248-1.292,0.682-1.936,1.03c0.015,0.136,0.031,0.271,0.046,0.406
		c2.865,0.813,5.396,2.109,7.473,4.743c-3.299-0.215-5.398-3.142-8.722-2.409c8.38,3.984,11.393,11.337,12.872,19.671
		c-0.442-0.24-0.712-0.594-0.951-0.967c-1.19-1.87-2.323-3.777-3.571-5.607c-1.091-1.598-2.25-3.159-3.5-4.634
		c-0.422-0.497-1.216-0.677-1.839-1.002c-0.129,0.643-0.423,1.304-0.358,1.927c0.223,2.147,0.873,4.149,2.42,5.761
		c2.143,2.231,4.409,4.359,6.389,6.726c5.835,6.971,9.787,15.046,13.288,23.355c0.553,1.31,1.226,2.329,2.568,2.887
		c0.628,0.261,1.366,0.569,1.735,1.085c1.779,2.493,4.395,3.343,7.178,4.042c1.177,0.294,2.289,0.923,3.354,1.535
		c0.342,0.197,0.435,0.825,0.643,1.256c-0.463,0.089-0.95,0.324-1.382,0.245c-4.427-0.812-8.817-0.552-13.22,0.225
		c-2.611,0.461-5.195,1.333-7.927,0.572c-2.815-0.785-4.87-2.576-6.949-4.708c3.458,0.645,6.652,1.552,9.892,1.76
		c3.239,0.207,6.522-0.284,9.784-0.468c0.018-0.151,0.035-0.302,0.051-0.452c-0.323-0.229-0.616-0.542-0.977-0.674
		c-2.199-0.805-4.402-1.608-6.629-2.335c-1.965-0.641-4.009-1.061-5.931-1.808c-1.484-0.577-2.521-1.816-3.629-3.308
		c0.629,0,0.902-0.042,1.16,0.006c1.447,0.272,2.884,0.617,4.341,0.817c0.42,0.058,1.031-0.172,1.293-0.488
		c0.15-0.181-0.116-0.891-0.384-1.205c-1.583-1.86-3.109-3.789-4.859-5.48c-5.572-5.386-11.439-10.481-16.809-16.058
		c-6.5-6.754-8.603-13.469-3.63-22.188c0.161-0.282,0.176-0.646,0.26-0.972c-0.092-0.094-0.184-0.188-0.276-0.282
		c-0.649,0.358-1.351,0.646-1.939,1.086c-3.035,2.268-4.353,5.34-4.389,9.107c-0.069,6.933,1.391,13.603,3.726,20.038
		c4.012,11.061,10.029,21.049,17.037,30.468c2.667,3.587,5.977,6.23,10.201,7.749c3.908,1.403,7.79,2.877,11.674,4.344
		c2.611,0.987,5.206,2.018,7.811,3.029c-0.301,0.303-0.521,0.339-0.729,0.297c-5.517-1.117-11.056-2.144-16.541-3.403
		c-3.466-0.795-6.841-1.966-9.654-4.301c-0.575-0.477-1.094-1.021-1.471-1.376c-1.12,3.355-2.07,6.727-3.376,9.955
		c-1.307,3.228-3.202,6.159-5.59,8.865c-0.734-1.801-1.387-2.027-2.9-1.117c-2.293,1.379-4.513,2.894-6.873,4.149
		c-5.701,3.031-11.586,4.274-17.778,1.377c-0.54-0.253-1.173-0.309-1.763-0.456c0.017,0.714-0.095,1.463,0.089,2.131
		c0.176,0.644,0.526,1.371,1.031,1.767c1.576,1.236,3.159,2.542,4.937,3.42c1.484,0.733,3.247,0.904,5.257,1.419
		c-0.737,0.195-1.147,0.333-1.569,0.413c-7.288,1.378-14.391,3.339-20.931,6.944c-16.995,9.367-25.956,23.728-26.487,43.166
		c-0.115,4.227,1.104,8.226,3.771,11.643c0.385,0.494,0.913,0.876,1.584,1.507c0.1-0.69,0.181-0.956,0.171-1.218
		c-0.195-5.862,1.972-10.916,5.349-15.539c4.364-5.975,10.038-10.541,16.011-14.779c0.31-0.221,0.596-0.477,1.142-0.914
		c-0.521,0-0.698-0.027-0.864,0.004c-5.249,0.961-10.324,2.443-15.037,5.013c-3.718,2.028-6.755,4.673-8.047,8.898
		c-0.041,0.13-0.219,0.216-0.501,0.479c0.138-3.77,1.737-6.594,4.24-8.943c3.608-3.387,8.076-5.184,12.764-6.336
		c6.944-1.707,13.963-3.1,20.923-4.744c7.786-1.838,15.388-4.206,22.448-8.099c7-3.861,12.587-9.255,17.521-15.903
		c-7.808,2.824-15.26,5.889-23.318,6.772c6.055-2.744,12.11-5.451,18.274-7.875c9.849-3.872,19.941-6.438,30.684-4.858
		c0.551,0.082,1.374-0.313,1.762-0.757c1.422-1.628,2.715-3.368,4.05-5.071c0.232-0.294,0.435-0.611,0.735-1.042
		c0.247,0.451,0.377,0.692,0.512,0.93c1.281,2.236,2.436,4.561,3.891,6.678c1.122,1.632,2.254,1.388,2.711-0.526
		c0.707-2.957,1.226-5.96,1.739-8.958c0.056-0.326-0.36-0.896-0.706-1.097c-1.116-0.65-2.301-1.18-3.441-1.747
		c0.902-0.404,1.698-0.64,2.355-1.081c1.234-0.829,1.842-0.819,2.252,0.623c0.953,3.349,3.939,3.418,6.441,4.345
		c-0.154-0.474-0.479-0.815-0.633-1.221c-0.198-0.519-0.262-1.09-0.382-1.639c0.599-0.091,1.242-0.372,1.786-0.239
		c2.064,0.505,2.659,1.669,2.243,4.497c1.747,0.25,3.504,0.678,5.256,0.661c0.653-0.006,1.415-0.973,1.875-1.668
		c0.131-0.198-0.516-1.151-0.998-1.465c-1.222-0.8-1.902-1.853-2.039-3.277c-0.405-4.239,1.411-7.458,4.777-9.807
		c1.732-1.208,3.702-2.068,5.53-3.146c0.479-0.282,0.826-0.787,1.234-1.189c-1.363-0.329-2.49-0.307-3.618-0.332
		c-6.713-0.146-13.157-1.744-19.525-3.7c-4.282-1.315-8.593-2.047-13.092-1.499c-3.762,0.459-7.552,0.789-11.28-0.222
		c-0.804-0.217-1.5-0.824-2.244-1.25c0.761-0.356,1.488-0.884,2.291-1.041c6.704-1.317,13.318-0.582,19.863,1.084
		C160.112,160.017,161.921,160.693,163.824,161.299z M176.225,334.494c2.219,0.852,2.505,2.74,3.2,4.373
		c2.258,5.301,4.226,10.75,6.876,15.848c2.545,4.896,5.802,9.424,8.739,14.117c0.253,0.402,0.476,0.824,0.711,1.238
		c-0.105,0.076-0.212,0.154-0.318,0.232c-0.999-1.047-1.986-2.105-2.996-3.141c-6.854-7.041-12.253-14.998-15.369-24.389
		c-0.596-1.793-1.009-3.652-1.7-5.404c-0.613-1.553-1.691-1.947-2.96-1.377c-2.288,1.027-2.367,1.174-1.635,3.166
		c3.218,8.771,8.313,16.455,13.919,23.822c2.768,3.637,5.75,7.105,8.547,10.721c0.519,0.668,0.729,1.645,0.885,2.514
		c0.201,1.111,0.513,2.016,1.67,2.484c1.52,0.617,1.704,1.045,0.967,2.5c-0.74,1.459-0.363,2.594,0.586,3.805
		c0.626,0.799,1.006,1.811,1.41,2.762c1.116,2.617,1.787,5.531,3.378,7.809c2.117,3.037,4.918,5.6,7.483,8.313
		c0.245,0.26,0.973,0.318,1.345,0.16c2.578-1.107,5.187-2.176,7.663-3.488c2.476-1.313,2.491-1.447,1.886-4.182
		c-0.265-1.195,0.089-1.688,1.173-1.979c3.517-0.947,6.987-2.084,10.538-2.869c9.542-2.111,14.97-8.746,18.962-16.982
		c0.892-1.838-0.021-3.338-1.7-3.252c-0.696,0.037-1.438-0.027-2.098-0.236c-2.657-0.84-4.702,0.127-5.535,2.803
		c-0.343,1.092-0.462,2.254-0.68,3.389c-0.261,1.34-0.637,1.604-1.876,1.092c-0.924-0.383-1.614-0.209-2.416,0.363
		c-2.08,1.486-4.462,1.936-6.977,1.641c-0.492-0.057-0.958-0.332-1.591-0.563c1.752-0.404,3.284-0.637,4.731-1.121
		c1.727-0.578,2.972-1.703,3.401-2.629c-1.641,0.268-3.354,0.713-5.083,0.781c-1.785,0.07-3.622-0.045-5.369-0.408
		c-3.239-0.67-6.439-1.545-9.631-2.426c-0.471-0.131-0.795-0.77-1.195-1.164c-0.55-0.541-1.043-1.424-1.678-1.547
		c-1.652-0.318-2.543-1.395-3.309-2.672c-0.712-1.184-1.388-2.398-1.977-3.648c-7.659-16.287-13.709-33.152-18.075-50.619
		c-0.226-0.9-0.544-1.777-0.819-2.664c-0.164,0.014-0.328,0.027-0.49,0.041c-0.107,1.207-0.207,2.418-0.325,3.625
		c-0.064,0.633-0.038,1.314-0.271,1.885c-1.083,2.645-2.374,5.207-3.342,7.891c-1.321,3.654-3.569,6.412-6.991,8.238
		C177.389,333.613,176.948,333.988,176.225,334.494z M141.883,62.079c0.705,1.732,1.715,3.276,1.908,4.916
		c0.283,2.425,2.032,3.114,3.709,4.008c0.357,0.192,0.904,0.028,1.548,0.028c-1.177-2.477-1.262-4.772-0.529-7.108
		c0.603-1.924,1.265-2.251,3.165-1.485c0.594,0.239,1.169,0.559,1.694,0.925c0.27,0.188,0.54,0.542,0.585,0.854
		c0.274,1.877,1.708,3.459,3.578,3.676c1.462,0.171,2.946,0.157,4.418,0.268c1.02,0.076,1.636,0.625,1.603,1.698
		c-0.061,1.889-0.139,3.778-0.243,5.666c-0.066,1.165-0.648,1.81-1.892,1.623c-0.95-0.144-1.374,0.305-1.743,1.157
		c-0.703,1.623-1.615,3.153-2.356,4.761c-0.426,0.926-0.88,1.91-0.985,2.903c-0.207,1.975-1.468,3.23-3.409,2.844
		c-1.05-0.208-2.022-0.822-3.015-1.287c-0.375-0.174-0.705-0.445-1.055-0.671c1.371,2.637,3.626,3.922,6.369,4.313
		c2.147,0.307,2.838-0.216,3.786-2.329c0.188-0.418,0.424-0.826,0.707-1.188c2.07-2.656,4.109-5.341,6.261-7.934
		c1.813-2.188,3.086-4.547,3.386-7.428c0.291-2.809,0.367-2.815-2.002-4.201c-3.499-2.047-5.838-5.198-7.996-8.49
		c-1.592-2.432-3.479-4.532-5.927-6.118c-0.388-0.251-0.719-0.593-1.118-0.93c0.255-0.172,0.338-0.276,0.398-0.263
		c0.312,0.069,0.622,0.146,0.921,0.258c4.7,1.76,8.45,4.685,10.974,9.072c1.979,3.438,4.496,6.219,8.575,7.101
		c3.816,0.825,7.64,1.605,11.164-1.199c0.408,0.327,0.807,0.713,1.267,0.997c0.457,0.282,0.976,0.463,1.457,0.685
		c0.27,1.71,1.622,2.263,3.95,1.631c0.016-0.044,0.054-0.094,0.042-0.13c-1.045-3.663-4.316-5.09-7.102-6.986
		c-0.145-0.1-0.809,0.348-1.046,0.675c-0.173,0.234-0.034,0.694-0.034,1.148c-1.576-0.406-3.07-0.68-4.482-1.189
		c-1.322-0.478-2.577-1.165-3.819-1.836c-0.785-0.423-0.871-1.026-0.362-1.842c2.427-3.887,5.007-7.613,8.499-10.681
		c4.476-3.932,4.595-5.125,1.778-10.413c-0.196-0.367-0.416-0.72-0.633-1.075c-3.865-6.416-9.715-10.366-16.461-13.177
		c-4.858-2.025-9.856-3.368-15.197-3.05c-3.266,0.194-4.682,1.582-5.069,4.799c-0.396,3.292-0.726,6.628-1.566,9.818
		c-0.671,2.55-0.028,4.217,1.86,5.813c1.864,1.577,3.589,3.319,5.337,5.027c0.342,0.333,0.512,0.841,0.761,1.269
		c-0.108,0.107-0.215,0.213-0.321,0.319c-0.626-0.327-1.249-0.661-1.879-0.982c-2.95-1.506-5.816-3.221-8.877-4.458
		c-3.756-1.519-7.729-2.279-11.789-1.257c-1.716,0.433-3.444,1.111-3.793,3.179c-0.267,1.583,1.025,3.454,3.209,4.22
		c1.927,0.676,4.018,0.879,6.024,1.333c0.394,0.089,0.744,0.375,1.114,0.571c-0.301,0.366-0.545,0.96-0.913,1.052
		c-0.786,0.195-1.64,0.203-2.457,0.155c-2.643-0.157-4.212,1.159-4.069,3.818c0.111,2.101,0.585,4.184,0.935,6.269
		c0.313,1.871,0.086,2.326-1.7,2.782c-1.116,0.284-1.066,0.846-0.491,1.588c0.839,1.083,2.035,1.04,3.172,0.807
		c3.416-0.7,5.602,0.196,7.487,3.126c0.268,0.417,0.931,1.052,1.106,0.966c0.542-0.269,0.938-0.835,1.145-1.041
		c-0.849-0.967-1.706-1.606-2.089-2.458c-0.617-1.369-0.891-2.889-1.365-4.328c-0.712-2.156,0.251-4.386,2.199-4.978
		c1.662-0.506,2.863,0.46,2.79,2.242C142.541,61.988,142.104,62.049,141.883,62.079z M26.407,361.84
		c0.558,0.102,1.036,0.096,1.419,0.281c0.506,0.246,1.206,0.57,1.324,0.998c0.101,0.367-0.437,0.986-0.806,1.389
		c-0.65,0.709-1.438,1.293-2.078,2.012c-1.708,1.914-1.904,1.943-3.776,0.074c-0.204,0.564-0.465,1.055-0.557,1.576
		c-0.246,1.4-0.16,2.916-0.669,4.203c-1.674,4.232-0.621,8.02,1.36,11.809c0.707,1.35,1.522,1.984,3.02,1.648
		c1.032-0.23,1.568,0.182,1.96,1.199c1.192,3.096,2.539,6.135,3.764,9.221c1.628,4.102,4.444,7.033,8.63,8.412
		c3.447,1.139,6.947,2.262,10.513,2.85c2.584,0.426,5.329,0.1,7.976-0.156c1.391-0.131,1.795-1.271,1.346-2.611
		c-0.123-0.367-0.25-0.816-0.152-1.164c0.596-2.109-0.188-3.764-1.771-5.027c-1.584-1.262-3.324-2.326-4.966-3.52
		c-0.586-0.426-1.193-0.891-1.608-1.471c-4.01-5.609-5.442-12.039-5.816-18.773c-0.031-0.545,0.394-1.273,0.833-1.654
		c1.221-1.061,1.391-1.957,0.268-3.451c-0.69,1.291-1.458,1.014-2.311,0.164c-0.303-0.303-0.847-0.344-1.238-0.578
		c-0.288-0.172-0.708-0.467-0.702-0.697c0.007-0.264,0.404-0.711,0.663-0.736c0.981-0.086,1.976-0.033,3.121-0.033
		c-0.034,0.104,0.048-0.059,0.071-0.232c0.537-3.797,1.847-7.355,3.709-10.664c5.839-10.379,12.869-19.918,20.694-28.883
		c0.773-0.887,1.535-1.783,2.301-2.676c-0.054-0.174-0.108-0.346-0.162-0.521c-1.089,0-2.186-0.088-3.266,0.016
		c-6.092,0.572-12.089,0.346-17.829-2.049c-0.999-0.416-1.51-0.104-2.019,0.746c-6.16,10.307-11.151,21.127-14.48,32.688
		c-0.144,0.498-0.376,0.969-0.566,1.453c-0.366-0.393-0.483-0.736-0.444-1.061c0.247-2.059,0.248-4.201,0.849-6.156
		c1.722-5.592,3.61-11.135,5.588-16.643c1.504-4.189,3.71-8.041,6.359-11.627c0.528-0.713,0.719-1.316-0.084-2.025
		c-0.947-0.832-1.784-1.787-2.766-2.789c-0.182,0.232-0.492,0.557-0.718,0.932c-1.354,2.254-2.786,4.467-4.009,6.791
		c-3.755,7.129-5.541,14.934-7.68,22.621C30.36,352.543,30.189,357.809,26.407,361.84z M183.414,186.214
		c-0.121,0.316-0.196,0.58-0.318,0.821c-4.724,9.449-9.436,18.904-14.179,28.343c-9.635,19.169-19.288,38.329-28.933,57.495
		c-7.053,14.014-14.097,28.033-21.145,42.049c-0.786,1.566-1.595,3.123-2.309,4.721c-0.141,0.313,0.111,0.803,0.182,1.209
		c0.381-0.168,0.798-0.289,1.131-0.527c0.201-0.145,0.271-0.471,0.401-0.715c4.527-8.461,9.063-16.916,13.579-25.385
		c10.854-20.355,21.7-40.715,32.545-61.078c8.283-15.555,16.55-31.121,24.865-46.659c0.276-0.516,0.958-1.057,1.513-1.133
		c2.299-0.316,4.301-1.294,6.297-2.379c1.267-0.688,1.816-1.712,2.37-3.021c0.478-1.128,1.816-1.891,2.772-2.818
		c0.03-0.029,0.038-0.083,0.05-0.128c0.308-1.212,1.059-1.741,2.327-1.97c2.504-0.45,3.136-2.419,1.544-4.522
		c-1.265,1.07-2.503,0.423-3.75-0.081c-1.149-0.466-2.278-0.999-3.461-1.356c-0.711-0.216-1.292,0.181-0.87,0.983
		c0.746,1.418,0.007,2.078-1.073,2.789c-0.61,0.401-1.461,1.093-1.456,1.646c0.016,1.316-0.491,2.181-1.398,2.985
		c-0.255,0.225-0.43,0.604-0.516,0.944c-0.45,1.777-1.18,2.506-2.953,2.747c-2.738,0.372-5.487,0.943-8.166-0.352
		c-0.307-0.149-0.804-0.213-1.072-0.063c-0.433,0.24-0.965,0.649-1.046,1.067c-0.074,0.382,0.36,0.892,0.641,1.299
		c0.127,0.187,0.42,0.261,0.732,0.439c-0.378,0.359-0.661,0.628-1.112,1.058C181.575,185.171,182.432,185.657,183.414,186.214z
		 M61.811,309.152c-0.024,0.205-0.048,0.41-0.073,0.613c0.761,0.365,1.491,0.846,2.291,1.07c1.819,0.514,3.682,0.869,5.508,1.359
		c0.431,0.115,0.787,0.506,1.177,0.77c-0.438,0.256-0.88,0.734-1.316,0.73c-2.667-0.031-5.373,0.08-7.99-0.338
		c-3.623-0.576-6.842-2.029-8.136-5.951c-0.032-0.098-0.211-0.148-0.431-0.287c-0.561,0.738-1.119,1.457-1.659,2.191
		c-1.296,1.76-1.088,3.123,0.731,4.553c0.091-0.158,0.146-0.342,0.268-0.451c0.457-0.412,0.937-0.799,1.407-1.195
		c0.222,0.648,0.711,1.34,0.616,1.938c-0.354,2.234-0.451,2.281,1.689,3.248c5.39,2.432,11.021,2.301,16.709,1.457
		c1.153-0.17,2.317-0.27,3.812-0.439c-0.593,1.629-1.046,2.875-1.606,4.418c0.578-0.246,0.865-0.291,1.04-0.455
		c2.292-2.143,4.593-4.277,6.825-6.482c0.329-0.326,0.547-1.064,0.423-1.5c-0.7-2.469,0.729-3.855,2.474-5.041
		c1.333-0.906,2.793-1.621,4.15-2.492c1.313-0.846,2.486-1.893,2.516-3.596c0.052-2.82,1.665-4.473,3.982-5.658
		c1.485-0.758,2.684-1.824,3.365-3.357c1.475-3.314,3.81-5.975,6.344-8.488c3.518-3.486,6.838-7.119,9.253-11.502
		c3.118-5.658,6.208-11.333,9.478-16.904c4.41-7.524,9.45-14.564,16.491-19.932c0.16-0.123,0.25-0.342,0.624-0.873
		c-0.921,0.283-1.487,0.391-1.996,0.624c-5.98,2.737-10.773,6.832-14.446,12.319c-4.973,7.427-8.982,15.375-12.916,23.365
		c-3.32,6.742-7.915,12.18-14.84,15.48c-1.505,0.717-2.86,1.859-4.079,3.023c-0.583,0.559-0.999,1.641-0.947,2.451
		c0.171,2.631-1.005,4.236-3.361,5.084c-1.775,0.637-3.601,1.133-5.378,1.768c-0.461,0.164-0.823,0.607-1.231,0.924
		c0.365,0.375,0.669,0.861,1.109,1.096c0.601,0.318,1.319,0.406,1.962,0.656c1.098,0.426,1.345,1.186,0.5,2
		c-0.745,0.719-1.639,1.473-2.599,1.742c-2.564,0.715-5.178,1.48-7.812,1.67c-4.08,0.295-8.192,0.121-12.292,0.168
		C62.901,308.934,62.357,309.074,61.811,309.152z M182.897,287.867c-0.184,0.543-0.279,0.676-0.257,0.783
		c0.965,4.5-0.416,8.453-2.753,12.219c-0.628,1.01-1.159,2.104-1.579,3.219c-0.34,0.895-0.372,1.939,0.743,2.352
		c1.187,0.438,1.297,1.307,0.995,2.219c-0.443,1.344-0.97,2.689-1.672,3.912c-1.913,3.336-4.652,5.941-7.699,8.232
		c-0.774,0.58-1.08,1.189-1.007,2.205c0.118,1.627-0.137,3.244-1.503,4.396c-1.532,1.295-1.62,2.945-0.077,4.584
		c2.076-1.291,4.143-2.67,6.295-3.896c2.868-1.639,4.768-4.061,5.886-7.088c1.774-4.795,3.254-9.707,6.508-13.816
		c0.809-1.021-0.482-4.465-1.717-4.861c-0.897-0.287-0.987-0.756-0.748-1.563c1.026-3.471,0.78-6.938-0.209-10.365
		C183.877,289.617,183.401,288.904,182.897,287.867z M90.069,223.879c-0.05-0.099-0.101-0.197-0.151-0.296
		c-0.223,0.01-0.452-0.005-0.669,0.035c-5.03,0.922-10.04,1.972-15.097,2.722c-2.28,0.34-3.801,1.454-5.056,3.197
		c-0.431,0.597-0.879,1.187-1.262,1.814c-2.727,4.473-1.996,10.261,1.657,13.233c1.423,1.157,1.652,1.106,2.485-0.54
		c3.612-7.145,8.331-13.357,15.032-17.911C88.056,225.422,89.05,224.633,90.069,223.879z M194.021,165.582
		c0.107,0.104,0.217,0.208,0.324,0.312c0.494-0.197,1-0.367,1.48-0.597c1.515-0.728,3.075-0.773,4.525,0.006
		c1.896,1.02,3.683,2.243,5.56,3.302c0.376,0.212,1.136,0.29,1.38,0.064c0.418-0.385,0.881-1.153,0.752-1.589
		c-0.156-0.522-0.855-1.098-1.421-1.24c-1.889-0.475-3.822-0.766-5.738-1.128c-0.079-0.108-0.159-0.218-0.239-0.327
		c0.605-0.416,1.158-1.004,1.828-1.217c2.397-0.763,3.822-2.327,4.235-4.785c0.362-2.169-0.771-4.57-2.684-5.665
		c-1.879-1.075-3.793-1.077-5.918-0.041c0.625,0.211,1.021,0.344,1.403,0.474c-0.291,0.844-0.492,1.587-0.796,2.285
		c-0.37,0.841-1.012,0.88-1.665,0.335c-0.297-0.248-0.483-0.629-0.841-1.114c-1.049,1.747-1.001,3.381-0.481,5.12
		c0.175,0.588,0.155,1.335-0.048,1.915C195.215,163.02,194.584,164.289,194.021,165.582z M161.542,102.472
		c0.128-0.132,0.253-0.265,0.38-0.397c-0.105-0.427-0.217-0.853-0.313-1.28c-0.195-0.852-0.45-1.697-0.558-2.561
		c-0.209-1.668,0.238-3.179,1.175-4.588c0.306-0.46,0.841-1.283-0.335-1.438c-1.517-0.202-3.935,1.331-4.43,2.551
		c-0.918-0.158-1.842-0.575-2.624-0.39c-1.145,0.271-1.809-0.147-2.584-0.813c-1.219-1.046-2.456-2.101-3.814-2.945
		c-1.269-0.788-2.108-0.388-1.967,1.02c0.289,2.916,0.871,5.805,1.443,8.683c0.056,0.28,0.875,0.56,1.343,0.565
		c0.469,0.005,0.942-0.333,1.414-0.519c1.16-0.459,2.206-0.687,3.253,0.427c0.81,0.862,2.005,1.088,3.033,0.334
		c0.81-0.595,1.379-0.371,2.098,0.074C159.846,101.682,160.711,102.051,161.542,102.472z M22.042,404.486
		c-0.762-1.17-1.443-2.318-2.239-3.377c-0.248-0.33-0.806-0.426-1.222-0.629c-0.148,0.344-0.415,0.686-0.424,1.033
		c-0.045,1.703-0.056,3.41,0.006,5.113c0.012,0.35,0.385,0.689,0.592,1.033c0.2-0.348,0.547-0.686,0.573-1.045
		c0.077-1.076,0.028-2.162,0.028-3.242c0.112-0.039,0.226-0.076,0.338-0.115c0.798,1.119,1.597,2.238,2.502,3.508
		c0.873-1.262,1.633-2.365,2.394-3.467c0.137,0.033,0.274,0.068,0.41,0.104c0,1.168-0.036,2.338,0.028,3.504
		c0.015,0.258,0.386,0.498,0.592,0.746c0.164-0.234,0.463-0.465,0.467-0.701c0.037-2.111,0.021-4.225,0.021-6.594
		C23.692,400.83,23.727,403.373,22.042,404.486z M10.41,400.602c-0.038,0.15-0.074,0.301-0.111,0.451
		c0.401,0.104,0.816,0.338,1.2,0.291c1.272-0.146,1.601,0.43,1.524,1.594c-0.081,1.236-0.063,2.484,0.013,3.721
		c0.021,0.344,0.409,0.662,0.629,0.992c0.181-0.318,0.504-0.629,0.518-0.953c0.06-1.377,0.064-2.758,0.017-4.137
		c-0.031-0.896,0.313-1.244,1.208-1.211c0.447,0.016,0.902-0.172,1.354-0.268c-0.027-0.16-0.053-0.32-0.081-0.48
		C14.59,400.602,12.5,400.602,10.41,400.602z M184.952,172.182c-0.071-0.226-0.144-0.45-0.216-0.676
		c-1.682,0.442-3.374,0.851-5.036,1.362c-0.257,0.081-0.37,0.631-0.552,0.963c0.346,0.165,0.716,0.508,1.032,0.464
		C181.976,174.046,183.559,173.295,184.952,172.182z M162.755,115.192c-0.193,0.243-0.866,0.736-0.798,1.083
		c0.165,0.841,0.039,2.122,1.364,2.177c1.048,0.043,1.519-0.742,1.55-1.723C164.91,115.582,164.14,115.274,162.755,115.192z
		 M164.587,125.947c1.317-0.426,1.988-1.217,1.98-2.451c-0.006-0.949-0.69-1.252-1.531-1.151c-0.819,0.097-1.256,0.515-0.983,1.425
		C164.249,124.429,164.383,125.106,164.587,125.947z M145.038,83.927c0.034-0.21,0.067-0.42,0.103-0.631
		c-0.634-0.342-1.36-1.069-1.878-0.942c-1.023,0.253-2.062,0.833-2.716,2.398C142.311,84.428,143.674,84.178,145.038,83.927z
		 M152.572,75.55c-0.023-0.108-0.047-0.216-0.071-0.324c-0.657,0.149-1.382,0.178-1.947,0.494c-0.313,0.174-0.357,0.829-0.522,1.267
		c0.111,0.051,0.223,0.103,0.333,0.154C151.101,76.611,151.835,76.08,152.572,75.55z"/>
	<path fill-rule="evenodd" clip-rule="evenodd" d="M163.824,161.299c-1.903-0.606-3.712-1.282-5.57-1.754
		c-6.545-1.666-13.159-2.401-19.863-1.084c-0.803,0.157-1.53,0.685-2.291,1.041c0.744,0.426,1.44,1.033,2.244,1.25
		c3.729,1.01,7.519,0.681,11.28,0.222c4.499-0.549,8.81,0.183,13.092,1.499c6.368,1.956,12.813,3.554,19.525,3.7
		c1.128,0.025,2.255,0.003,3.618,0.332c-0.408,0.402-0.755,0.907-1.234,1.189c-1.828,1.078-3.798,1.937-5.53,3.146
		c-3.366,2.349-5.183,5.568-4.777,9.807c0.137,1.424,0.817,2.478,2.039,3.277c0.482,0.314,1.129,1.268,0.998,1.465
		c-0.46,0.696-1.222,1.662-1.875,1.668c-1.752,0.017-3.509-0.411-5.256-0.661c0.416-2.828-0.179-3.992-2.243-4.497
		c-0.544-0.133-1.188,0.148-1.786,0.239c0.12,0.548,0.184,1.12,0.382,1.639c0.154,0.405,0.479,0.747,0.633,1.221
		c-2.502-0.926-5.488-0.996-6.441-4.345c-0.41-1.442-1.018-1.452-2.252-0.623c-0.657,0.44-1.453,0.676-2.355,1.081
		c1.141,0.567,2.325,1.097,3.441,1.747c0.346,0.201,0.762,0.771,0.706,1.097c-0.514,2.998-1.032,6-1.739,8.958
		c-0.457,1.914-1.589,2.159-2.711,0.526c-1.455-2.117-2.609-4.442-3.891-6.678c-0.135-0.237-0.265-0.479-0.512-0.93
		c-0.301,0.431-0.503,0.748-0.735,1.042c-1.335,1.703-2.628,3.442-4.05,5.071c-0.388,0.443-1.211,0.838-1.762,0.757
		c-10.742-1.579-20.835,0.986-30.684,4.858c-6.165,2.424-12.22,5.131-18.274,7.875c8.058-0.883,15.511-3.948,23.318-6.772
		c-4.935,6.648-10.521,12.042-17.521,15.903c-7.06,3.893-14.662,6.261-22.448,8.099c-6.96,1.645-13.979,3.037-20.923,4.744
		c-4.688,1.152-9.156,2.949-12.764,6.336c-2.503,2.35-4.103,5.174-4.24,8.943c0.282-0.264,0.46-0.35,0.501-0.479
		c1.292-4.226,4.329-6.87,8.047-8.898c4.712-2.569,9.788-4.052,15.037-5.013c0.166-0.031,0.342-0.004,0.864-0.004
		c-0.546,0.438-0.832,0.693-1.142,0.914c-5.973,4.238-11.646,8.805-16.011,14.779c-3.377,4.623-5.544,9.677-5.349,15.539
		c0.01,0.262-0.071,0.527-0.171,1.218c-0.672-0.631-1.2-1.013-1.584-1.507c-2.667-3.417-3.887-7.416-3.771-11.643
		c0.531-19.438,9.492-33.798,26.487-43.166c6.54-3.604,13.643-5.565,20.931-6.944c0.422-0.08,0.833-0.218,1.569-0.413
		c-2.01-0.515-3.772-0.686-5.257-1.419c-1.777-0.878-3.36-2.184-4.937-3.42c-0.504-0.396-0.854-1.123-1.031-1.767
		c-0.184-0.668-0.072-1.417-0.089-2.131c0.59,0.147,1.223,0.202,1.763,0.456c6.192,2.897,12.077,1.653,17.778-1.377
		c2.36-1.255,4.58-2.77,6.873-4.149c1.513-0.91,2.166-0.684,2.9,1.117c2.388-2.706,4.284-5.637,5.59-8.865
		c1.306-3.228,2.256-6.6,3.376-9.955c0.377,0.354,0.896,0.899,1.471,1.376c2.813,2.334,6.188,3.505,9.654,4.301
		c5.485,1.259,11.024,2.287,16.541,3.403c0.207,0.042,0.428,0.006,0.729-0.297c-2.604-1.011-5.199-2.042-7.811-3.029
		c-3.884-1.467-7.766-2.941-11.674-4.344c-4.224-1.518-7.534-4.161-10.201-7.749c-7.007-9.418-13.024-19.407-17.037-30.468
		c-2.335-6.435-3.795-13.105-3.726-20.038c0.036-3.767,1.354-6.84,4.389-9.107c0.588-0.44,1.29-0.728,1.939-1.086
		c0.092,0.094,0.185,0.188,0.276,0.282c-0.083,0.326-0.099,0.69-0.26,0.972c-4.973,8.719-2.871,15.434,3.63,22.188
		c5.369,5.577,11.236,10.672,16.809,16.058c1.75,1.692,3.276,3.621,4.859,5.48c0.268,0.313,0.534,1.024,0.384,1.205
		c-0.262,0.315-0.873,0.545-1.293,0.488c-1.457-0.2-2.894-0.545-4.341-0.817c-0.258-0.048-0.531-0.006-1.16-0.006
		c1.108,1.492,2.145,2.731,3.629,3.308c1.922,0.747,3.966,1.167,5.931,1.808c2.227,0.727,4.43,1.53,6.629,2.335
		c0.36,0.131,0.653,0.445,0.977,0.674c-0.016,0.15-0.033,0.301-0.051,0.452c-3.262,0.185-6.545,0.675-9.784,0.468
		c-3.239-0.208-6.434-1.115-9.892-1.76c2.079,2.131,4.134,3.923,6.949,4.708c2.731,0.761,5.315-0.111,7.927-0.572
		c4.402-0.777,8.793-1.036,13.22-0.225c0.432,0.079,0.919-0.156,1.382-0.245c-0.208-0.431-0.301-1.059-0.643-1.256
		c-1.064-0.611-2.177-1.24-3.354-1.535c-2.783-0.699-5.398-1.549-7.178-4.042c-0.369-0.516-1.107-0.824-1.735-1.085
		c-1.343-0.559-2.016-1.578-2.568-2.887c-3.501-8.309-7.453-16.384-13.288-23.355c-1.98-2.367-4.247-4.495-6.389-6.726
		c-1.548-1.611-2.197-3.614-2.42-5.761c-0.065-0.623,0.229-1.284,0.358-1.927c0.623,0.325,1.417,0.505,1.839,1.002
		c1.25,1.475,2.41,3.036,3.5,4.634c1.248,1.83,2.381,3.738,3.571,5.607c0.239,0.374,0.509,0.728,0.951,0.967
		c-1.479-8.334-4.492-15.688-12.872-19.671c3.324-0.733,5.423,2.194,8.722,2.409c-2.076-2.634-4.608-3.93-7.473-4.743
		c-0.016-0.135-0.031-0.271-0.046-0.406c0.644-0.348,1.257-0.783,1.936-1.03c3.249-1.184,6.607-1.276,9.97-0.708
		c3.82,0.645,7.617,1.425,11.426,2.141c0.389,0.074,0.783,0.109,1.177,0.163c0.092-0.11,0.185-0.22,0.278-0.329
		c-0.381-0.5-0.657-1.17-1.157-1.47c-2.358-1.417-4.775-2.741-7.181-4.079c-0.533-0.297-1.112-0.518-1.669-0.774
		c0.034-0.188,0.068-0.377,0.103-0.565c2.839,0.136,5.682,0.272,8.767,0.421c-0.856-1.26-2.054-1.605-3.178-1.976
		c-1.161-0.384-2.375-0.606-3.775-1.099c3.696-1.931,4.425-5.182,4.102-8.856c2.219,0.468,11.841,11.746,17.729,20.658
		c5.056,7.654,9.206,15.78,12.306,24.425c3.072,8.568,5.04,17.396,6.015,26.457c0.149,0.038,0.299,0.075,0.448,0.113
		c0.4-0.724,0.938-1.404,1.181-2.175c1.573-5.011,3.18-10.015,4.577-15.076c0.795-2.884,1.215-5.872,1.803-8.813
		c0.578-2.893-0.131-5.521-1.819-7.858c-1.115-1.543-1.427-3.159-1.043-4.973c0.134-0.632,0.185-1.285,0.359-1.905
		c0.712-2.52,0.222-4.598-1.933-6.282c-1.289-1.008-1.752-2.531-1.936-4.289c4.199-0.472,8.33-1.21,12.181,1.035
		c1.002,0.584,1.88,1.488,2.614,2.405c1.974,2.467,4.213,4.147,7.625,3.936c2.199-0.136,4.203,0.803,5.656,2.484
		c1.117,1.293,1.985,2.799,3.186,4.526c-1.186,2.422-0.91,4.825,1.587,6.619c0.056-0.638,0.085-1.146,0.145-1.649
		c0.107-0.912,0.158-1.842,0.39-2.724c0.096-0.366,0.573-0.833,0.919-0.875c0.332-0.038,0.816,0.35,1.059,0.679
		c0.38,0.512,0.596,1.143,0.914,1.706c2.303,4.074,6.136,6.022,10.433,7.396c-4.001-2.835-7.951-5.684-9.225-10.773
		c0.636-0.436,1.281-0.879,1.926-1.322c0.003-0.193,0.006-0.385,0.008-0.578c-3.927,0.232-7.329-0.756-10.316-3.783
		c1.007-0.261,1.582-0.384,2.14-0.561c1.22-0.386,1.422-0.971,0.74-2.066c-0.874-1.406-1.521-1.495-2.895-0.567
		c-0.229,0.155-1.045-0.055-1.109-0.253c-0.205-0.637-0.186-1.348-0.256-2.03c-0.139-1.318-0.311-2.634-0.397-3.956
		c-0.028-0.436,0.028-1.12,0.291-1.275c0.39-0.23,1.052-0.235,1.499-0.071c0.439,0.16,0.745,0.666,1.13,0.998
		c1.534,1.323,4.305,1.52,5.943,0.349c0.398-0.285,0.597-0.85,0.886-1.286c-0.431-0.206-0.885-0.624-1.29-0.582
		c-1.84,0.189-3.012-0.599-4.237-1.954c-1.104-1.222-2.758-1.956-4.198-2.86c-0.7-0.441-1.458-0.794-2.202-1.162
		c-2.729-1.351-4.643-3.365-5.63-6.323c-0.457-1.373-1.373-2.591-2.052-3.894c-0.18-0.345-0.464-0.915-0.329-1.084
		c0.242-0.3,0.848-0.606,1.157-0.499c0.884,0.308,1.718,0.785,2.523,1.275c0.321,0.196,0.517,0.603,0.895,1.069
		c0.401-1.997,0.764-3.801,1.127-5.606c0.144,0.022,0.287,0.045,0.432,0.067c0.049,0.113,0.169,0.252,0.138,0.336
		c-0.966,2.667-0.252,5.306,0.171,7.936c0.09,0.567,0.454,1.281,0.91,1.529c0.287,0.158,0.977-0.419,1.487-0.667
		c0.272-0.132,0.605-0.439,0.807-0.369c1.278,0.443,1.494-0.496,1.822-1.31c0.271-0.68,0.525-1.366,0.803-2.043
		c0.569-1.4,0.298-2.081-1.16-2.748c0.009-0.989,0.325-2.178-1.178-2.527c-0.119-0.028-0.162-0.577-0.16-0.882
		c0.011-1.207-0.347-2.095-1.776-2.212c1.92-0.755,3.913-0.884,5.77-0.247c0.753,0.258,1.198,1.491,1.692,2.332
		c0.062,0.103-0.434,0.531-0.746,0.896c0.017,0.01,0.133,0.136,0.246,0.133c2.312-0.056,2.994,1.405,3.439,3.369
		c0.646,2.845,1.694,5.551,3.573,7.875c0.449,0.555,0.739,1.285,0.947,1.98c0.359,1.195,1.321,1.846,2.021,2.723
		c1.199,1.503,2.537,1.834,4.182,2.128c0.476,0.085,1.118,0.951,1.159,1.5c0.293,3.856,2.46,6.797,4.58,9.765
		c2.787,3.903,5.753,7.688,8.371,11.701c1.313,2.013,2.084,4.396,2.991,6.655c0.652,1.631-0.007,3.005-1.287,4.06
		c-2.434,2.004-5.129,3.42-8.363,3.617c-8.231,0.497-16.436,0.242-24.575-1.108c-6.678-1.107-13.329-2.381-20.232-3.625
		C170.808,138.029,167.229,149.546,163.824,161.299z M135.709,103.958c-0.104-0.174-0.209-0.348-0.313-0.521
		c-2.206,1.082-4.422,2.146-6.6,3.283c-0.134,0.07-0.107,0.845,0.091,1.067c0.521,0.576,1.166,1.043,1.785,1.526
		c6.744,5.258,13.33,10.681,18.569,17.535c0.194,0.254,0.489,0.43,0.738,0.642c0.144-0.108,0.286-0.216,0.429-0.323
		c-1.06-1.684-1.895-3.578-3.222-5.014c-4.287-4.633-8.729-9.126-13.181-13.604c-0.823-0.827-0.816-1.438-0.177-2.239
		C134.455,105.525,135.082,104.741,135.709,103.958z M150.467,135.003c-0.013-1.183-1.005-2.3-1.998-2.247
		c-0.921,0.049-1.664,0.987-1.635,2.061c0.032,1.136,0.938,2.151,1.93,2.163C149.705,136.991,150.479,136.093,150.467,135.003z
		 M154.443,147.75c0.036-1.152-0.932-2.28-1.971-2.243c-1.133,0.038-1.619,0.769-1.706,1.793c-0.095,1.125,0.872,2.293,1.885,2.362
		C153.551,149.722,154.411,148.804,154.443,147.75z"/>
	<path fill-rule="evenodd" clip-rule="evenodd" d="M176.225,334.494c0.724-0.506,1.164-0.881,1.665-1.148
		c3.422-1.826,5.67-4.584,6.991-8.238c0.968-2.684,2.259-5.246,3.342-7.891c0.232-0.57,0.206-1.252,0.271-1.885
		c0.118-1.207,0.218-2.418,0.325-3.625c0.162-0.014,0.326-0.027,0.49-0.041c0.275,0.887,0.594,1.764,0.819,2.664
		c4.366,17.467,10.416,34.332,18.075,50.619c0.589,1.25,1.265,2.465,1.977,3.648c0.766,1.277,1.656,2.354,3.309,2.672
		c0.635,0.123,1.128,1.006,1.678,1.547c0.4,0.395,0.725,1.033,1.195,1.164c3.191,0.881,6.392,1.756,9.631,2.426
		c1.747,0.363,3.584,0.479,5.369,0.408c1.729-0.068,3.442-0.514,5.083-0.781c-0.43,0.926-1.675,2.051-3.401,2.629
		c-1.447,0.484-2.979,0.717-4.731,1.121c0.633,0.23,1.099,0.506,1.591,0.563c2.515,0.295,4.896-0.154,6.977-1.641
		c0.802-0.572,1.492-0.746,2.416-0.363c1.239,0.512,1.615,0.248,1.876-1.092c0.218-1.135,0.337-2.297,0.68-3.389
		c0.833-2.676,2.878-3.643,5.535-2.803c0.659,0.209,1.401,0.273,2.098,0.236c1.68-0.086,2.592,1.414,1.7,3.252
		c-3.992,8.236-9.42,14.871-18.962,16.982c-3.551,0.785-7.021,1.922-10.538,2.869c-1.084,0.291-1.438,0.783-1.173,1.979
		c0.605,2.734,0.59,2.869-1.886,4.182c-2.477,1.313-5.085,2.381-7.663,3.488c-0.372,0.158-1.1,0.1-1.345-0.16
		c-2.565-2.713-5.366-5.275-7.483-8.313c-1.591-2.277-2.262-5.191-3.378-7.809c-0.404-0.951-0.784-1.963-1.41-2.762
		c-0.949-1.211-1.326-2.346-0.586-3.805c0.737-1.455,0.553-1.883-0.967-2.5c-1.157-0.469-1.469-1.373-1.67-2.484
		c-0.155-0.869-0.366-1.846-0.885-2.514c-2.797-3.615-5.779-7.084-8.547-10.721c-5.606-7.367-10.701-15.051-13.919-23.822
		c-0.732-1.992-0.653-2.139,1.635-3.166c1.269-0.57,2.347-0.176,2.96,1.377c0.691,1.752,1.104,3.611,1.7,5.404
		c3.116,9.391,8.515,17.348,15.369,24.389c1.01,1.035,1.997,2.094,2.996,3.141c0.106-0.078,0.213-0.156,0.318-0.232
		c-0.235-0.414-0.458-0.836-0.711-1.238c-2.938-4.693-6.194-9.221-8.739-14.117c-2.65-5.098-4.618-10.547-6.876-15.848
		C178.729,337.234,178.443,335.346,176.225,334.494z M223.105,390.029c-3.074,0.334-5.975,0.639-8.873,0.969
		c-0.546,0.061-1.178,0.08-1.604,0.365c-0.836,0.564-1.649,1.227-2.28,2c-0.3,0.367-0.157,1.092-0.215,1.654
		c0.538-0.115,1.18-0.08,1.592-0.369c1.963-1.383,4.106-2.242,6.458-2.686c1.174-0.223,2.323-0.602,3.449-1.002
		C222.145,390.779,222.576,390.375,223.105,390.029z M204.255,391.281c-0.161-0.955-0.361-1.846-0.447-2.748
		c-0.074-0.771,0.063-1.564-0.035-2.33c-0.134-1.025-0.688-1.707-1.848-1.604c-0.914,0.082-1.777,0.496-1.641,1.475
		c0.188,1.342,0.542,2.721,1.137,3.928C201.912,390.994,202.819,391.852,204.255,391.281z"/>
	<path fill-rule="evenodd" clip-rule="evenodd" d="M141.883,62.079c0.221-0.03,0.658-0.091,1.095-0.151
		c0.073-1.783-1.128-2.749-2.79-2.243c-1.948,0.592-2.911,2.822-2.199,4.978c0.475,1.438,0.748,2.958,1.365,4.328
		c0.383,0.852,1.24,1.491,2.089,2.458c-0.207,0.206-0.603,0.772-1.145,1.041c-0.176,0.086-0.839-0.549-1.106-0.966
		c-1.886-2.93-4.071-3.827-7.487-3.126c-1.137,0.233-2.333,0.276-3.172-0.807c-0.575-0.742-0.625-1.304,0.491-1.588
		c1.786-0.456,2.013-0.911,1.7-2.782c-0.35-2.085-0.823-4.168-0.935-6.269c-0.143-2.659,1.427-3.976,4.069-3.818
		c0.817,0.048,1.671,0.04,2.457-0.155c0.368-0.091,0.612-0.686,0.913-1.052c-0.37-0.195-0.721-0.481-1.114-0.571
		c-2.007-0.454-4.098-0.657-6.024-1.333c-2.184-0.766-3.476-2.637-3.209-4.22c0.349-2.068,2.077-2.747,3.793-3.179
		c4.06-1.022,8.033-0.262,11.789,1.257c3.061,1.238,5.927,2.952,8.877,4.458c0.63,0.321,1.253,0.655,1.879,0.982
		c0.106-0.106,0.213-0.212,0.321-0.319c-0.249-0.428-0.419-0.936-0.761-1.269c-1.748-1.708-3.473-3.451-5.337-5.027
		c-1.889-1.596-2.531-3.262-1.86-5.813c0.841-3.19,1.171-6.526,1.566-9.818c0.388-3.217,1.804-4.605,5.069-4.799
		c5.341-0.317,10.339,1.025,15.197,3.05c6.746,2.812,12.596,6.762,16.461,13.177c0.217,0.355,0.437,0.708,0.633,1.075
		c2.816,5.288,2.697,6.48-1.778,10.413c-3.492,3.068-6.072,6.794-8.499,10.681c-0.509,0.815-0.423,1.418,0.362,1.842
		c1.242,0.671,2.497,1.358,3.819,1.836c1.412,0.509,2.906,0.783,4.482,1.189c0-0.455-0.139-0.914,0.034-1.148
		c0.237-0.327,0.901-0.775,1.046-0.675c2.785,1.896,6.057,3.323,7.102,6.986c0.012,0.037-0.026,0.086-0.042,0.13
		c-2.328,0.632-3.681,0.079-3.95-1.631c-0.481-0.221-1-0.402-1.457-0.685c-0.46-0.284-0.858-0.67-1.267-0.997
		c-3.524,2.804-7.348,2.023-11.164,1.199c-4.079-0.881-6.596-3.663-8.575-7.101c-2.523-4.388-6.273-7.312-10.974-9.072
		c-0.299-0.112-0.609-0.189-0.921-0.258c-0.061-0.013-0.144,0.09-0.398,0.263c0.399,0.337,0.73,0.679,1.118,0.93
		c2.448,1.585,4.335,3.686,5.927,6.118c2.158,3.292,4.497,6.443,7.996,8.49c2.369,1.386,2.293,1.392,2.002,4.201
		c-0.3,2.88-1.573,5.24-3.386,7.428c-2.151,2.593-4.19,5.278-6.261,7.934c-0.283,0.361-0.52,0.77-0.707,1.188
		c-0.948,2.112-1.639,2.636-3.786,2.329c-2.743-0.391-4.998-1.675-6.369-4.313c0.35,0.227,0.68,0.497,1.055,0.671
		c0.992,0.465,1.965,1.079,3.015,1.287c1.941,0.386,3.202-0.87,3.409-2.844c0.105-0.993,0.56-1.977,0.985-2.903
		c0.741-1.608,1.653-3.138,2.356-4.761c0.369-0.852,0.793-1.3,1.743-1.157c1.243,0.188,1.825-0.458,1.892-1.623
		c0.104-1.888,0.183-3.777,0.243-5.666c0.033-1.073-0.583-1.622-1.603-1.698c-1.472-0.111-2.956-0.097-4.418-0.268
		c-1.87-0.217-3.304-1.799-3.578-3.676c-0.045-0.312-0.315-0.666-0.585-0.854c-0.525-0.366-1.101-0.686-1.694-0.925
		c-1.9-0.767-2.563-0.439-3.165,1.485c-0.732,2.336-0.647,4.632,0.529,7.108c-0.644,0-1.19,0.164-1.548-0.028
		c-1.677-0.894-3.426-1.583-3.709-4.008C143.598,65.354,142.588,63.811,141.883,62.079z"/>
	<path fill-rule="evenodd" clip-rule="evenodd" d="M26.407,361.84c3.782-4.031,3.954-9.297,5.294-14.117
		c2.14-7.688,3.925-15.492,7.68-22.621c1.223-2.324,2.655-4.537,4.009-6.791c0.226-0.375,0.536-0.699,0.718-0.932
		c0.982,1.002,1.819,1.957,2.766,2.789c0.804,0.709,0.612,1.313,0.084,2.025c-2.649,3.586-4.855,7.438-6.359,11.627
		c-1.978,5.508-3.866,11.051-5.588,16.643c-0.601,1.955-0.602,4.098-0.849,6.156c-0.039,0.324,0.078,0.668,0.444,1.061
		c0.19-0.484,0.422-0.955,0.566-1.453c3.329-11.561,8.32-22.381,14.48-32.688c0.508-0.85,1.02-1.162,2.019-0.746
		c5.74,2.395,11.737,2.621,17.829,2.049c1.08-0.104,2.176-0.016,3.266-0.016c0.054,0.176,0.108,0.348,0.162,0.521
		c-0.767,0.893-1.528,1.789-2.301,2.676c-7.825,8.965-14.855,18.504-20.694,28.883c-1.862,3.309-3.173,6.867-3.709,10.664
		c-0.023,0.174-0.105,0.336-0.071,0.232c-1.146,0-2.14-0.053-3.121,0.033c-0.259,0.025-0.656,0.473-0.663,0.736
		c-0.007,0.23,0.414,0.525,0.702,0.697c0.391,0.234,0.936,0.275,1.238,0.578c0.853,0.85,1.621,1.127,2.311-0.164
		c1.123,1.494,0.953,2.391-0.268,3.451c-0.439,0.381-0.864,1.109-0.833,1.654c0.374,6.734,1.806,13.164,5.816,18.773
		c0.415,0.58,1.022,1.045,1.608,1.471c1.642,1.193,3.382,2.258,4.966,3.52c1.583,1.264,2.367,2.918,1.771,5.027
		c-0.098,0.348,0.029,0.797,0.152,1.164c0.45,1.34,0.045,2.48-1.346,2.611c-2.647,0.256-5.391,0.582-7.976,0.156
		c-3.566-0.588-7.065-1.711-10.513-2.85c-4.186-1.379-7.001-4.311-8.63-8.412c-1.225-3.086-2.572-6.125-3.764-9.221
		c-0.392-1.018-0.928-1.43-1.96-1.199c-1.498,0.336-2.313-0.299-3.02-1.648c-1.981-3.789-3.034-7.576-1.36-11.809
		c0.509-1.287,0.424-2.803,0.669-4.203c0.092-0.521,0.353-1.012,0.557-1.576c1.872,1.869,2.068,1.84,3.776-0.074
		c0.64-0.719,1.428-1.303,2.078-2.012c0.369-0.402,0.907-1.021,0.806-1.389c-0.118-0.428-0.817-0.752-1.324-0.998
		C27.442,361.936,26.964,361.941,26.407,361.84z M28.617,375.746c-0.167-0.023-0.336-0.047-0.503-0.072
		c-0.231,0.439-0.689,0.896-0.654,1.311c0.123,1.48,0.15,3.053,0.699,4.393c1.023,2.498,2.383,4.855,3.608,7.266
		c0.188,0.371,0.375,0.748,0.621,1.076c0.654,0.873,1.43,0.865,1.702-0.184c0.26-0.992,0.373-2.289-0.059-3.148
		c-0.791-1.572-1.933-3.006-3.108-4.34c-1.072-1.219-1.938-2.412-1.925-4.121C29.004,377.199,28.753,376.473,28.617,375.746z
		 M48.275,400.428c0.071-0.117,0.143-0.232,0.215-0.35c-2.167-0.293-3.184-1.869-4.32-3.371c-0.767-1.012-2.12-1.096-3.114-0.402
		c-0.639,0.447-0.937,1.193-0.151,1.533c2.332,1.006,4.747,1.826,7.132,2.707C48.094,400.566,48.195,400.469,48.275,400.428z
		 M42.855,393.873c-1.452-1.5-4.64-0.848-5.473,1.01c-0.088,0.201,0.035,0.496,0.06,0.746c0.295-0.041,0.603-0.043,0.882-0.133
		c0.975-0.313,1.943-0.65,2.91-0.992C41.728,394.33,42.21,394.127,42.855,393.873z"/>
	<path fill-rule="evenodd" clip-rule="evenodd" d="M183.414,186.214c-0.982-0.558-1.839-1.043-2.808-1.593
		c0.451-0.429,0.734-0.698,1.112-1.058c-0.313-0.179-0.605-0.252-0.732-0.439c-0.28-0.407-0.715-0.917-0.641-1.299
		c0.081-0.418,0.613-0.827,1.046-1.067c0.269-0.15,0.766-0.086,1.072,0.063c2.679,1.295,5.428,0.724,8.166,0.352
		c1.773-0.241,2.503-0.97,2.953-2.747c0.086-0.34,0.261-0.719,0.516-0.944c0.907-0.804,1.414-1.669,1.398-2.985
		c-0.005-0.553,0.846-1.245,1.456-1.646c1.08-0.71,1.819-1.37,1.073-2.789c-0.422-0.802,0.159-1.199,0.87-0.983
		c1.183,0.357,2.312,0.89,3.461,1.356c1.247,0.504,2.485,1.151,3.75,0.081c1.592,2.103,0.96,4.072-1.544,4.522
		c-1.269,0.229-2.02,0.757-2.327,1.97c-0.012,0.044-0.02,0.099-0.05,0.128c-0.956,0.927-2.295,1.69-2.772,2.818
		c-0.554,1.309-1.104,2.333-2.37,3.021c-1.996,1.085-3.998,2.063-6.297,2.379c-0.555,0.077-1.236,0.618-1.513,1.133
		c-8.315,15.539-16.582,31.104-24.865,46.659c-10.845,20.363-21.691,40.723-32.545,61.078c-4.516,8.469-9.052,16.924-13.579,25.385
		c-0.131,0.244-0.2,0.57-0.401,0.715c-0.333,0.238-0.75,0.359-1.131,0.527c-0.07-0.406-0.322-0.896-0.182-1.209
		c0.714-1.598,1.522-3.154,2.309-4.721c7.048-14.016,14.092-28.035,21.145-42.049c9.645-19.166,19.298-38.326,28.933-57.495
		c4.743-9.438,9.455-18.894,14.179-28.343C183.218,186.794,183.293,186.53,183.414,186.214z"/>
	<path fill-rule="evenodd" clip-rule="evenodd" d="M61.811,309.152c0.546-0.078,1.09-0.219,1.637-0.225
		c4.099-0.047,8.212,0.127,12.292-0.168c2.634-0.189,5.248-0.955,7.812-1.67c0.96-0.27,1.854-1.023,2.599-1.742
		c0.845-0.814,0.598-1.574-0.5-2c-0.643-0.25-1.361-0.338-1.962-0.656c-0.44-0.234-0.745-0.721-1.109-1.096
		c0.408-0.316,0.77-0.76,1.231-0.924c1.777-0.635,3.603-1.131,5.378-1.768c2.356-0.848,3.533-2.453,3.361-5.084
		c-0.052-0.811,0.364-1.893,0.947-2.451c1.218-1.164,2.574-2.307,4.079-3.023c6.926-3.301,11.521-8.738,14.84-15.48
		c3.933-7.99,7.943-15.938,12.916-23.365c3.673-5.487,8.466-9.582,14.446-12.319c0.509-0.233,1.075-0.341,1.996-0.624
		c-0.374,0.531-0.464,0.75-0.624,0.873c-7.041,5.367-12.081,12.407-16.491,19.932c-3.27,5.571-6.359,11.246-9.478,16.904
		c-2.415,4.383-5.735,8.016-9.253,11.502c-2.534,2.514-4.869,5.174-6.344,8.488c-0.681,1.533-1.88,2.6-3.365,3.357
		c-2.317,1.186-3.93,2.838-3.982,5.658c-0.03,1.703-1.203,2.75-2.516,3.596c-1.357,0.871-2.818,1.586-4.15,2.492
		c-1.744,1.186-3.174,2.572-2.474,5.041c0.124,0.436-0.094,1.174-0.423,1.5c-2.232,2.205-4.532,4.34-6.825,6.482
		c-0.175,0.164-0.462,0.209-1.04,0.455c0.56-1.543,1.013-2.789,1.606-4.418c-1.495,0.17-2.659,0.27-3.812,0.439
		c-5.688,0.844-11.319,0.975-16.709-1.457c-2.14-0.967-2.043-1.014-1.689-3.248c0.096-0.598-0.394-1.289-0.616-1.938
		c-0.471,0.396-0.95,0.783-1.407,1.195c-0.121,0.109-0.177,0.293-0.268,0.451c-1.819-1.43-2.027-2.793-0.731-4.553
		c0.54-0.734,1.098-1.453,1.659-2.191c0.22,0.139,0.399,0.189,0.431,0.287c1.293,3.922,4.513,5.375,8.136,5.951
		c2.617,0.418,5.323,0.307,7.99,0.338c0.436,0.004,0.878-0.475,1.316-0.73c-0.391-0.264-0.747-0.654-1.177-0.77
		c-1.826-0.49-3.688-0.846-5.508-1.359c-0.8-0.225-1.53-0.705-2.291-1.07C61.763,309.563,61.787,309.357,61.811,309.152z"/>
	<path fill-rule="evenodd" clip-rule="evenodd" d="M182.897,287.867c0.504,1.037,0.979,1.75,1.206,2.531
		c0.989,3.428,1.235,6.895,0.209,10.365c-0.239,0.807-0.149,1.275,0.748,1.563c1.234,0.396,2.525,3.84,1.717,4.861
		c-3.254,4.109-4.733,9.021-6.508,13.816c-1.118,3.027-3.018,5.449-5.886,7.088c-2.152,1.227-4.219,2.605-6.295,3.896
		c-1.543-1.639-1.455-3.289,0.077-4.584c1.366-1.152,1.621-2.77,1.503-4.396c-0.073-1.016,0.232-1.625,1.007-2.205
		c3.047-2.291,5.786-4.896,7.699-8.232c0.702-1.223,1.229-2.568,1.672-3.912c0.302-0.912,0.191-1.781-0.995-2.219
		c-1.115-0.412-1.083-1.457-0.743-2.352c0.42-1.115,0.951-2.209,1.579-3.219c2.337-3.766,3.718-7.719,2.753-12.219
		C182.618,288.543,182.714,288.41,182.897,287.867z"/>
	<path fill-rule="evenodd" clip-rule="evenodd" d="M90.069,223.879c-1.019,0.754-2.013,1.543-3.062,2.255
		c-6.702,4.554-11.42,10.767-15.032,17.911c-0.833,1.646-1.062,1.697-2.485,0.54c-3.652-2.973-4.383-8.761-1.657-13.233
		c0.383-0.628,0.831-1.218,1.262-1.814c1.255-1.743,2.776-2.857,5.056-3.197c5.057-0.75,10.066-1.8,15.097-2.722
		c0.217-0.04,0.447-0.025,0.669-0.035C89.968,223.682,90.019,223.78,90.069,223.879z"/>
	<path fill-rule="evenodd" clip-rule="evenodd" d="M194.021,165.582c0.563-1.293,1.193-2.563,1.657-3.891
		c0.203-0.58,0.223-1.327,0.048-1.915c-0.52-1.739-0.567-3.374,0.481-5.12c0.357,0.485,0.544,0.867,0.841,1.114
		c0.653,0.545,1.295,0.506,1.665-0.335c0.304-0.697,0.505-1.441,0.796-2.285c-0.383-0.13-0.778-0.263-1.403-0.474
		c2.125-1.037,4.039-1.035,5.918,0.041c1.912,1.095,3.046,3.496,2.684,5.665c-0.413,2.458-1.838,4.022-4.235,4.785
		c-0.67,0.213-1.223,0.801-1.828,1.217c0.08,0.108,0.16,0.218,0.239,0.327c1.916,0.362,3.85,0.653,5.738,1.128
		c0.565,0.143,1.265,0.718,1.421,1.24c0.129,0.436-0.334,1.204-0.752,1.589c-0.244,0.226-1.004,0.148-1.38-0.064
		c-1.877-1.06-3.663-2.283-5.56-3.302c-1.45-0.779-3.011-0.733-4.525-0.006c-0.48,0.23-0.986,0.4-1.48,0.597
		C194.238,165.79,194.129,165.687,194.021,165.582z"/>
	<path fill-rule="evenodd" clip-rule="evenodd" d="M161.542,102.472c-0.831-0.421-1.696-0.79-2.485-1.278
		c-0.719-0.445-1.288-0.669-2.098-0.074c-1.028,0.754-2.224,0.528-3.033-0.334c-1.047-1.113-2.093-0.886-3.253-0.427
		c-0.472,0.187-0.945,0.524-1.414,0.519c-0.468-0.006-1.287-0.285-1.343-0.565c-0.572-2.877-1.154-5.767-1.443-8.683
		c-0.142-1.407,0.698-1.807,1.967-1.02c1.358,0.844,2.596,1.899,3.814,2.945c0.775,0.666,1.439,1.085,2.584,0.813
		c0.782-0.186,1.706,0.232,2.624,0.39c0.495-1.22,2.913-2.753,4.43-2.551c1.176,0.156,0.641,0.978,0.335,1.438
		c-0.937,1.409-1.384,2.92-1.175,4.588c0.107,0.864,0.362,1.708,0.558,2.561c0.096,0.428,0.207,0.853,0.313,1.28
		C161.795,102.208,161.67,102.34,161.542,102.472z"/>
	<path fill-rule="evenodd" clip-rule="evenodd" d="M22.042,404.486c1.685-1.113,1.651-3.656,4.069-4.129
		c0,2.369,0.016,4.482-0.021,6.594c-0.004,0.236-0.304,0.467-0.467,0.701c-0.207-0.248-0.578-0.488-0.592-0.746
		c-0.064-1.166-0.028-2.336-0.028-3.504c-0.136-0.035-0.273-0.07-0.41-0.104c-0.761,1.102-1.521,2.205-2.394,3.467
		c-0.905-1.27-1.704-2.389-2.502-3.508c-0.113,0.039-0.226,0.076-0.338,0.115c0,1.08,0.049,2.166-0.028,3.242
		c-0.026,0.359-0.373,0.697-0.573,1.045c-0.207-0.344-0.58-0.684-0.592-1.033c-0.062-1.703-0.051-3.41-0.006-5.113
		c0.009-0.348,0.275-0.689,0.424-1.033c0.416,0.203,0.974,0.299,1.222,0.629C20.599,402.168,21.28,403.316,22.042,404.486z"/>
	<path fill-rule="evenodd" clip-rule="evenodd" d="M10.41,400.602c2.091,0,4.18,0,6.27,0c0.028,0.16,0.054,0.32,0.081,0.48
		c-0.451,0.096-0.906,0.283-1.354,0.268c-0.895-0.033-1.239,0.314-1.208,1.211c0.047,1.379,0.043,2.76-0.017,4.137
		c-0.014,0.324-0.336,0.635-0.518,0.953c-0.22-0.33-0.608-0.648-0.629-0.992c-0.077-1.236-0.094-2.484-0.013-3.721
		c0.076-1.164-0.252-1.74-1.524-1.594c-0.384,0.047-0.799-0.188-1.2-0.291C10.336,400.902,10.372,400.752,10.41,400.602z"/>
	<path fill-rule="evenodd" clip-rule="evenodd" d="M184.952,172.182c-1.394,1.113-2.977,1.864-4.771,2.113
		c-0.316,0.044-0.687-0.299-1.032-0.464c0.182-0.332,0.295-0.882,0.552-0.963c1.662-0.512,3.354-0.92,5.036-1.362
		C184.809,171.732,184.881,171.957,184.952,172.182z"/>
	<path fill-rule="evenodd" clip-rule="evenodd" d="M162.755,115.192c1.385,0.083,2.155,0.39,2.116,1.537
		c-0.031,0.981-0.502,1.766-1.55,1.723c-1.325-0.055-1.199-1.336-1.364-2.177C161.889,115.928,162.562,115.435,162.755,115.192z"/>
	<path fill-rule="evenodd" clip-rule="evenodd" d="M164.587,125.947c-0.204-0.84-0.338-1.518-0.534-2.177
		c-0.272-0.911,0.164-1.328,0.983-1.425c0.841-0.101,1.525,0.202,1.531,1.151C166.575,124.729,165.904,125.521,164.587,125.947z"/>
	<path fill-rule="evenodd" clip-rule="evenodd" d="M145.038,83.927c-1.364,0.251-2.728,0.501-4.491,0.825
		c0.654-1.564,1.692-2.145,2.716-2.398c0.518-0.127,1.244,0.6,1.878,0.942C145.105,83.506,145.072,83.716,145.038,83.927z"/>
	<path fill-rule="evenodd" clip-rule="evenodd" d="M152.572,75.55c-0.737,0.53-1.472,1.061-2.208,1.591
		c-0.11-0.051-0.222-0.104-0.333-0.154c0.165-0.438,0.21-1.092,0.522-1.267c0.565-0.316,1.29-0.345,1.947-0.494
		C152.525,75.334,152.549,75.442,152.572,75.55z"/>
	<path fill-rule="evenodd" clip-rule="evenodd" fill="#FFFFFF" d="M135.709,103.958c-0.627,0.784-1.254,1.567-1.879,2.352
		c-0.64,0.802-0.646,1.412,0.177,2.239c4.452,4.478,8.894,8.97,13.181,13.604c1.327,1.436,2.162,3.33,3.222,5.014
		c-0.143,0.107-0.285,0.215-0.429,0.323c-0.249-0.212-0.544-0.388-0.738-0.642c-5.239-6.854-11.825-12.277-18.569-17.535
		c-0.619-0.482-1.265-0.95-1.785-1.526c-0.198-0.222-0.225-0.997-0.091-1.067c2.178-1.137,4.394-2.202,6.6-3.283
		C135.5,103.61,135.605,103.783,135.709,103.958z"/>
	<path fill-rule="evenodd" clip-rule="evenodd" fill="#FFFFFF" d="M150.467,135.003c0.013,1.09-0.762,1.988-1.703,1.977
		c-0.992-0.012-1.897-1.027-1.93-2.163c-0.029-1.074,0.714-2.012,1.635-2.061C149.462,132.703,150.454,133.82,150.467,135.003z"/>
	<path fill-rule="evenodd" clip-rule="evenodd" fill="#FFFFFF" d="M154.443,147.75c-0.032,1.054-0.893,1.972-1.792,1.912
		c-1.013-0.069-1.979-1.237-1.885-2.362c0.087-1.024,0.573-1.755,1.706-1.793C153.512,145.47,154.479,146.597,154.443,147.75z"/>
	<path fill-rule="evenodd" clip-rule="evenodd" fill="#FFFFFF" d="M223.105,390.029c-0.529,0.346-0.961,0.75-1.473,0.932
		c-1.126,0.4-2.275,0.779-3.449,1.002c-2.352,0.443-4.495,1.303-6.458,2.686c-0.412,0.289-1.054,0.254-1.592,0.369
		c0.058-0.563-0.085-1.287,0.215-1.654c0.631-0.773,1.444-1.436,2.28-2c0.426-0.285,1.058-0.305,1.604-0.365
		C217.131,390.668,220.031,390.363,223.105,390.029z"/>
	<path fill-rule="evenodd" clip-rule="evenodd" fill="#FFFFFF" d="M204.255,391.281c-1.436,0.57-2.343-0.287-2.834-1.279
		c-0.595-1.207-0.949-2.586-1.137-3.928c-0.137-0.979,0.727-1.393,1.641-1.475c1.159-0.104,1.714,0.578,1.848,1.604
		c0.098,0.766-0.039,1.559,0.035,2.33C203.894,389.436,204.094,390.326,204.255,391.281z"/>
	<path fill-rule="evenodd" clip-rule="evenodd" fill="#FFFFFF" d="M28.617,375.746c0.136,0.727,0.387,1.453,0.382,2.18
		c-0.013,1.709,0.853,2.902,1.925,4.121c1.175,1.334,2.317,2.768,3.108,4.34c0.431,0.859,0.318,2.156,0.059,3.148
		c-0.272,1.049-1.048,1.057-1.702,0.184c-0.247-0.328-0.434-0.705-0.621-1.076c-1.226-2.41-2.585-4.768-3.608-7.266
		c-0.549-1.34-0.576-2.912-0.699-4.393c-0.035-0.414,0.423-0.871,0.654-1.311C28.281,375.699,28.45,375.723,28.617,375.746z"/>
	<path fill-rule="evenodd" clip-rule="evenodd" fill="#FFFFFF" d="M48.275,400.428c-0.081,0.041-0.181,0.139-0.239,0.117
		c-2.385-0.881-4.8-1.701-7.132-2.707c-0.785-0.34-0.487-1.086,0.151-1.533c0.994-0.693,2.347-0.609,3.114,0.402
		c1.136,1.502,2.153,3.078,4.32,3.371C48.418,400.195,48.347,400.311,48.275,400.428z"/>
	<path fill-rule="evenodd" clip-rule="evenodd" fill="#FFFFFF" d="M42.855,393.873c-0.646,0.254-1.128,0.457-1.621,0.631
		c-0.966,0.342-1.935,0.68-2.91,0.992c-0.28,0.09-0.587,0.092-0.882,0.133c-0.025-0.25-0.148-0.545-0.06-0.746
		C38.216,393.025,41.403,392.373,42.855,393.873z"/>
</g>
</svg>
